<svg width="240" height="42" viewBox="0 0 240 42" fill="none" xmlns="http://www.w3.org/2000/svg">
<path fill-rule="evenodd" clip-rule="evenodd" d="M85.2026 26.8817V26.8552H87.7983V24.2254H85.2026V19.8334H85.5172H87.7983V17.3347H85.2026L85.2286 13.2588H87.7983V10.787C87.7195 10.787 87.6663 10.787 87.6149 10.787L85.2026 10.7603H82.6602V26.8817H85.2026ZM87.7983 26.8552H88.7941C89.6854 26.8552 90.5246 26.6712 91.2585 26.3031C91.9925 25.9347 92.569 25.3825 92.9883 24.672C93.4343 23.9625 93.6436 23.0947 93.6436 22.0952C93.5916 20.412 93.1456 19.1229 91.6257 18.3607C92.1764 17.9401 92.2544 17.572 92.5164 17.1247C92.753 16.6774 92.9097 15.994 92.9097 15.0734C92.8837 14.1795 92.6216 13.4169 92.1497 12.7595C91.4418 11.1815 89.6067 10.7082 87.7982 10.787V13.2588H88.4269C91.1272 13.3381 91.1798 17.5456 87.8242 17.3348L87.7982 17.3347V19.8334H88.4008C91.809 19.6754 92.097 24.4619 88.6368 24.2254H87.7982L87.7983 26.8552Z" fill="white"/>
<path fill-rule="evenodd" clip-rule="evenodd" d="M141.015 16.7568H141.041V14.1797H141.015C137.554 14.1797 134.723 17.0457 134.723 20.5174C134.723 24.0415 137.554 26.9075 141.015 26.9075C141.041 26.9075 141.041 26.8819 141.041 26.8819V24.3308C141.041 24.3308 141.041 24.3308 141.014 24.3308C138.943 24.3308 137.318 22.6216 137.318 20.5174C137.318 18.466 138.943 16.7568 141.015 16.7568H141.015ZM141.041 16.7568C143.112 16.7568 144.763 18.466 144.789 20.5174C144.789 22.6215 143.112 24.3041 141.041 24.3308V26.8819C144.501 26.8819 147.306 24.0148 147.306 20.5174C147.306 17.0457 144.501 14.2061 141.04 14.1797L141.041 16.7568Z" fill="white"/>
<path fill-rule="evenodd" clip-rule="evenodd" d="M133.701 24.1197H128.903C126.072 23.936 124.105 21.4113 124.263 18.5185C124.499 15.5466 126.439 13.6272 129.454 13.4692C130.948 13.4692 132.154 13.4167 133.701 13.4167V12.2593V10.7601C131.446 10.8132 128.955 10.6553 127.409 10.8653C124.053 11.3126 121.458 15.3626 121.458 18.7814C121.458 23.2518 124.971 26.8284 129.217 26.8284C130.659 26.8284 132.232 26.8284 133.701 26.8284C133.701 24.0676 133.701 25.04 133.701 24.1197Z" fill="white"/>
<path fill-rule="evenodd" clip-rule="evenodd" d="M150.688 25.4354L150.715 31.6939H148.328V20.4913C148.302 17.02 151.16 14.1529 154.646 14.1529L154.672 14.1528V16.6775C154.62 16.6775 154.568 16.6775 154.541 16.6775C152.366 16.6775 150.871 18.5188 150.871 20.649C150.871 22.8315 152.393 24.3567 154.541 24.3567C154.594 24.3567 154.62 24.3567 154.672 24.3567V26.8553C153.153 26.8553 151.763 26.3032 150.687 25.4354H150.688ZM154.672 14.1528C158.159 14.1528 160.991 17.02 160.991 20.4913C160.991 23.9887 158.159 26.8553 154.672 26.8553V24.3567C156.769 24.304 158.421 22.4895 158.474 20.4913C158.526 18.4924 156.769 16.7567 154.672 16.6775L154.672 14.1528Z" fill="white"/>
<path fill-rule="evenodd" clip-rule="evenodd" d="M164.372 25.4354L164.399 31.6939H162.013V20.4913C162.013 17.02 164.845 14.1529 168.331 14.1529L168.357 14.1528V16.6775C168.305 16.6775 168.278 16.6775 168.226 16.6775C166.05 16.6775 164.557 18.5188 164.557 20.649C164.557 22.8315 166.077 24.3567 168.226 24.3567C168.278 24.3567 168.305 24.3567 168.357 24.3567V26.8553C166.837 26.8553 165.473 26.3032 164.372 25.4354H164.372ZM168.357 14.1528C171.843 14.1528 174.675 17.02 174.675 20.4913C174.675 23.9887 171.843 26.8553 168.357 26.8553V24.3567C170.454 24.304 172.159 22.6215 172.159 20.4913C172.159 18.3868 170.454 16.7567 168.357 16.6775L168.357 14.1528Z" fill="white"/>
<path fill-rule="evenodd" clip-rule="evenodd" d="M178.397 22.2262L180.731 19.8596V23.5153L180.312 23.9362C180.259 23.9626 180.417 24.0935 180.731 24.2255V26.6973C177.795 26.0139 175.593 23.5945 175.593 20.5173C175.514 17.4932 177.768 14.9158 180.731 14.2848V16.8883C179.158 17.388 178.004 18.7816 178.004 20.5173C178.004 21.2007 178.083 21.648 178.397 22.2262ZM180.731 26.6973V24.2255C181.019 24.3567 181.491 24.4619 182.094 24.4359H186.577V26.8553H182.671C182.015 26.9074 181.36 26.8286 180.731 26.6973ZM180.731 19.8596L183.431 17.0987C183.038 16.9147 182.828 16.7307 182.068 16.6514C181.596 16.6514 181.15 16.7307 180.731 16.8883V14.2848C181.176 14.206 181.622 14.1528 182.094 14.1528C184.165 14.1528 185.895 15.5995 186.157 15.9413C186.682 16.3882 186.707 17.572 186.131 17.9666L180.731 23.5153V19.8596Z" fill="white"/>
<path fill-rule="evenodd" clip-rule="evenodd" d="M187.651 10.8652H189.984V20.3858C190.116 21.9366 190.693 22.9104 191.374 23.5151C191.82 23.8831 192.527 24.0676 193.34 24.1464L196.775 24.1463V26.8283L193.839 26.8815C192.265 26.8815 190.614 26.5922 189.67 25.6972C188.385 24.4356 187.573 22.9885 187.573 19.9645L187.651 10.8652Z" fill="white"/>
<path fill-rule="evenodd" clip-rule="evenodd" d="M119.833 19.0971V26.9865H119.78H117.395V19.0708C117.395 17.5719 115.77 16.7305 114.406 16.6774C113.07 16.7566 111.732 17.598 111.732 19.0708L111.732 26.9865H109.321H109.294V19.0971L109.321 19.0179V18.7551C109.321 17.4139 109.871 16.3092 110.736 15.5466L110.736 15.5206C111.654 14.7315 112.781 14.3107 113.908 14.1795C115.482 14.0214 117.133 14.4159 118.391 15.5206L118.417 15.5466C119.282 16.336 119.807 17.44 119.78 18.7551L119.78 19.0179L119.833 19.0971Z" fill="white"/>
<path fill-rule="evenodd" clip-rule="evenodd" d="M101.43 16.888H101.456V14.3105H101.43C97.917 14.3105 95.0593 17.1773 95.0593 20.6751C95.0593 24.1985 97.917 27.0656 101.43 27.0656C101.456 27.0656 101.456 27.0656 101.456 27.0656V24.4877H101.43C99.3327 24.4877 97.6804 22.7785 97.6804 20.6751C97.6804 18.5713 99.3327 16.888 101.43 16.888H101.43ZM101.456 16.888C103.553 16.888 105.231 18.5713 105.231 20.6751C105.231 22.7785 103.553 24.4877 101.456 24.4877V27.0656C102.898 27.0656 104.234 26.5658 105.284 25.7504V26.9603H107.8V21.0692C107.8 20.938 107.8 20.806 107.8 20.6751C107.8 20.5431 107.8 20.4378 107.8 20.307V20.2017H107.774C107.538 16.9405 104.785 14.3366 101.456 14.3106L101.456 16.888Z" fill="white"/>
<path d="M75.6602 5.21143C76.3679 5.21143 76.9187 5.86856 76.9189 6.65771V30.4321C76.9188 31.2206 76.3679 31.8774 75.6602 31.8774H43.2578C42.5768 31.8773 42.0002 31.2205 42 30.4321V6.65771C42.0002 5.8686 42.5768 5.21153 43.2578 5.21143H75.6602ZM52.3545 13.6274C50.7297 13.6537 49.4194 14.9425 49.3145 16.5464C49.0261 16.4148 48.6847 16.3625 48.3438 16.3364C48.2918 16.3364 48.2384 16.3364 48.1865 16.3364C46.5088 16.3366 45.1202 17.7035 45.1201 19.3862C45.1201 21.0954 46.5088 22.4632 48.1865 22.4634H48.3438C48.6847 22.4634 49.0262 22.385 49.3145 22.2534C49.4194 23.8576 50.7298 25.1458 52.3545 25.146H52.3809C54.0588 25.146 55.4229 23.7785 55.4229 22.0688C55.4228 21.622 55.3434 21.1748 55.1602 20.7808H73.7988V18.0454H55.1338C55.3171 17.6509 55.4228 17.2042 55.4229 16.731C55.4229 15.0213 54.0588 13.6275 52.3809 13.6274H52.3545ZM67.7695 20.9907V25.0933H69.3164V23.5679H70.8105V25.0669H72.3838V20.9907H67.7695ZM52.3545 20.7544C53.1146 20.7544 53.7186 21.3848 53.7188 22.1479C53.7188 22.8835 53.1147 23.5151 52.3545 23.5151C51.5945 23.515 50.9922 22.8834 50.9922 22.1479C50.9924 21.3849 51.5946 20.7546 52.3545 20.7544ZM48.3438 18.019C49.0779 18.0191 49.7069 18.6241 49.707 19.3862C49.707 20.1228 49.078 20.7543 48.3438 20.7544C47.5836 20.7544 46.9805 20.1228 46.9805 19.3862C46.9806 18.6241 47.5837 18.019 48.3438 18.019ZM52.3545 15.2319C53.1146 15.2319 53.7187 15.863 53.7188 16.6255C53.7188 17.3881 53.1147 17.9927 52.3545 17.9927C51.5945 17.9925 50.9922 17.388 50.9922 16.6255C50.9923 15.8631 51.5945 15.2321 52.3545 15.2319Z" fill="white"/>
</svg>
