<svg width="240" height="42" viewBox="0 0 240 42" fill="none" xmlns="http://www.w3.org/2000/svg">
<path d="M87.3175 21.9018C87.6482 22.0123 88.033 22.1765 88.472 22.3945C89.2416 22.8334 89.9001 23.4337 90.4531 24.1982C91.1144 25.2912 91.4422 26.6022 91.4422 28.1312C91.4422 33.378 88.2496 36 81.8701 36H69.496C69.1653 36 69 35.8358 69 35.5073V10.2614C69 9.93299 69.1653 9.76876 69.496 9.76876H82.5343C84.8461 9.76876 86.7132 10.4002 88.1442 11.6546C89.5723 12.9118 90.2906 14.5795 90.2906 16.655C90.2906 17.8584 90.0141 18.9231 89.4668 19.8518C88.9138 20.7834 88.1983 21.4658 87.3175 21.9018ZM81.7077 32.2284C83.5776 32.2284 84.9516 31.9283 85.8324 31.328C86.7103 30.7277 87.1522 29.6885 87.1522 28.2133C87.1522 26.7381 86.7103 25.7017 85.8324 25.0986C84.9516 24.4983 83.5748 24.1982 81.7077 24.1982H73.9514C73.5095 24.1982 73.29 24.3624 73.29 24.6909V31.7414C73.29 32.0698 73.5095 32.2341 73.9514 32.2341H81.7077V32.2284ZM73.9514 13.5403C73.6207 13.5403 73.4554 13.7046 73.4554 14.033V19.9339C73.4554 20.2624 73.6207 20.4266 73.9514 20.4266H81.5423C84.4014 20.4266 85.8324 19.2798 85.8324 16.9835C85.8324 14.6871 84.4014 13.5403 81.5423 13.5403H73.9514ZM114.055 21.9018C114.386 22.0123 114.717 22.1765 115.045 22.3945C115.923 22.8334 116.584 23.4337 117.026 24.1982C117.795 25.2912 118.18 26.6022 118.18 28.1312C118.18 33.378 114.988 36 108.608 36H96.2311C95.9005 36 95.7351 35.8358 95.7351 35.5073V10.2614C95.7351 9.93299 95.9005 9.76876 96.2311 9.76876H109.269C111.47 9.76876 113.311 10.4002 114.799 11.6546C116.285 12.9118 117.029 14.5795 117.029 16.655C117.029 17.8584 116.752 18.9231 116.205 19.8518C115.649 20.7834 114.933 21.4658 114.055 21.9018ZM100.521 13.5403C100.191 13.5403 100.025 13.7046 100.025 14.033V19.9339C100.025 20.2624 100.191 20.4266 100.521 20.4266H108.277C111.137 20.4266 112.568 19.2798 112.568 16.9835C112.568 14.6871 111.137 13.5403 108.277 13.5403H100.521ZM108.443 32.2284C110.313 32.2284 111.687 31.9283 112.568 31.328C113.445 30.7277 113.887 29.6885 113.887 28.2133C113.887 26.7381 113.445 25.7017 112.568 25.0986C111.687 24.4983 110.31 24.1982 108.443 24.1982H100.521C100.191 24.1982 100.025 24.3624 100.025 24.6909V31.7414C100.025 32.0698 100.191 32.2341 100.521 32.2341H108.443V32.2284ZM141.78 10.0972C141.888 9.87919 141.999 9.76876 142.11 9.76876H146.4C146.509 9.76876 146.62 9.82539 146.731 9.93299C146.839 10.0434 146.839 10.1538 146.731 10.2614L133.034 35.8358C132.923 35.9462 132.786 36 132.621 36C132.456 36 132.316 35.9462 132.208 35.8358L118.511 10.2614C118.4 10.1538 118.371 10.0434 118.428 9.93299C118.482 9.82539 118.619 9.76876 118.842 9.76876H122.966C123.186 9.76876 123.351 9.87919 123.462 10.0972L132.208 26.4917C132.208 26.6022 132.316 26.656 132.538 26.656C132.758 26.656 132.923 26.6022 133.034 26.4917L141.78 10.0972ZM146.731 31.9028C146.62 32.1236 146.455 32.2312 146.235 32.2312H141.945C141.834 32.2312 141.751 32.1774 141.697 32.067C141.64 31.9594 141.614 31.849 141.614 31.7386L155.314 6.16423C155.422 6.05663 155.588 6 155.81 6C156.03 6 156.195 6.05663 156.306 6.16423L170 31.7386C170 31.849 169.971 31.9594 169.917 32.067C169.86 32.1774 169.778 32.2312 169.669 32.2312H165.379C165.157 32.2312 164.992 32.1236 164.883 31.9028L156.3 15.5083C156.189 15.2902 156.024 15.1798 155.804 15.1798C155.582 15.1798 155.417 15.2902 155.308 15.5083L146.731 31.9028Z" fill="white"/>
</svg>
