<svg width="240" height="42" viewBox="0 0 240 42" fill="none" xmlns="http://www.w3.org/2000/svg">
<path d="M204.508 13.0222C204.508 12.9171 204.472 12.8372 204.407 12.7845C204.338 12.7317 204.254 12.7054 204.152 12.7054H203.564V13.3393H204.152C204.254 13.3393 204.338 13.3158 204.407 13.2634C204.473 13.2118 204.508 13.1321 204.508 13.0222ZM204.887 13.0105C204.887 13.1876 204.843 13.3309 204.757 13.4412C204.67 13.5507 204.555 13.6258 204.413 13.6676L204.869 14.5677H204.426L203.992 13.7066H203.564V14.5677H203.185V12.3373H204.159C204.258 12.3373 204.351 12.3491 204.439 12.3767C204.526 12.4042 204.604 12.444 204.67 12.4991C204.734 12.5538 204.787 12.6235 204.827 12.7089C204.867 12.7932 204.887 12.8939 204.887 13.0105ZM205.673 13.4922C205.673 13.2505 205.629 13.0246 205.544 12.8152C205.457 12.6057 205.336 12.4234 205.18 12.2688C205.027 12.1141 204.845 11.9937 204.634 11.9067C204.426 11.8189 204.201 11.7764 203.96 11.7764C203.714 11.7764 203.489 11.8189 203.282 11.9067C203.073 11.9941 202.894 12.1145 202.738 12.2688C202.583 12.4236 202.464 12.6059 202.376 12.8152C202.289 13.0246 202.246 13.2504 202.246 13.4922C202.246 13.7374 202.289 13.9638 202.376 14.1715C202.463 14.3794 202.583 14.5604 202.738 14.7149C202.894 14.8696 203.074 14.9913 203.282 15.0771C203.488 15.1645 203.714 15.2066 203.96 15.2066C204.201 15.2066 204.426 15.1641 204.634 15.0771C204.845 14.9909 205.027 14.8692 205.18 14.7149C205.336 14.5606 205.457 14.3791 205.544 14.1715C205.629 13.9636 205.673 13.7373 205.673 13.4922ZM206 13.4922C206 13.7827 205.949 14.0526 205.845 14.3011C205.741 14.5507 205.598 14.767 205.414 14.9499C205.233 15.1326 205.017 15.2766 204.769 15.38C204.519 15.4844 204.25 15.5363 203.96 15.5363C203.669 15.5363 203.399 15.4844 203.151 15.38C202.902 15.2765 202.687 15.1329 202.503 14.9499C202.321 14.7672 202.177 14.5508 202.073 14.3011C201.969 14.0527 201.918 13.7825 201.918 13.4922C201.918 13.2012 201.969 12.9317 202.073 12.6821C202.177 12.4325 202.321 12.2167 202.503 12.0334C202.687 11.8507 202.902 11.7074 203.151 11.6037C203.399 11.4994 203.669 11.4474 203.96 11.4474C204.25 11.4474 204.519 11.4994 204.769 11.6037C205.017 11.7072 205.233 11.8505 205.414 12.0334C205.599 12.2168 205.741 12.4324 205.845 12.6821C205.949 12.9317 206 13.2012 206 13.4922ZM65.7108 30.2274V15.8952H68.6483V30.2274H65.7108ZM63.2855 27.1094L63.4528 27.0023L62.7483 29.767L62.7168 29.7867C62.2392 30.0824 61.4358 30.4723 60.1208 30.444C58.1681 30.4125 56.8627 28.9042 56.8627 26.697V18.6077H54.3837V15.9132H56.8627V12.995L59.7449 11.4473V15.9132H62.7225V18.6077H59.7449V26.2165C59.7449 27.3305 60.1638 27.8315 61.1153 27.8315C61.771 27.8315 62.503 27.5888 63.2855 27.1094ZM48.8613 30.2274V15.8952H51.796V30.2274H48.8613ZM37.5365 23.0845C37.5365 25.7638 39.4055 27.6913 41.9846 27.6913C43.2249 27.6913 44.4251 27.1359 45.4586 26.0802L45.5208 26.0125L47.1908 28.0204L47.1451 28.0731C45.7583 29.7091 44.1019 30.5028 42.0667 30.5028C40.0241 30.5028 38.1613 29.819 36.8056 28.573C35.3521 27.2257 34.577 25.3259 34.577 23.0848C34.577 20.8369 35.3521 18.9411 36.8056 17.596C38.1613 16.3512 40.0241 15.6691 42.0666 15.6691C44.1019 15.6691 45.7583 16.4571 47.1451 18.0953L47.1908 18.1454L45.5208 20.1578L45.4586 20.0936C44.4251 19.0294 43.2249 18.4718 41.9846 18.4718C39.4055 18.4718 37.5365 20.4154 37.5365 23.0845ZM176.743 30.2319H173.392L172.03 27.7496C171.458 26.7137 170.805 25.4043 170.532 24.8586C170.287 25.4043 169.524 26.7952 168.979 27.7773L167.59 30.2319H164.414L168.801 22.8133L164.713 15.9139H167.972L169.089 17.9315C169.661 18.968 170.342 20.2501 170.587 20.7952C170.886 20.2501 171.567 18.8864 172.111 17.877L173.201 15.9139H176.443L172.328 22.8133L176.743 30.2319ZM154.512 21.7497H161.585C161.449 19.7859 160.309 18.1499 157.994 18.1499C156.115 18.1499 154.757 19.4587 154.512 21.7497ZM164.418 22.7862C164.418 23.3041 164.363 23.7683 164.336 24.0678H154.457C154.757 26.8224 156.523 27.9591 158.266 27.9591C159.465 27.9591 160.738 27.5226 161.692 26.8133L163.247 28.6497C161.993 29.8498 160.282 30.5319 158.103 30.5319C154.752 30.5319 151.652 27.8317 151.652 23.0862C151.652 18.2314 154.481 15.6138 158.185 15.6138C162.243 15.6138 164.418 18.9136 164.418 22.7862ZM149.744 21.9161V30.2319H146.862V22.1318C146.862 19.2408 145.963 18.2043 144.111 18.2043C142.232 18.2043 141.399 19.5408 141.399 21.8589V30.2319H138.517V22.1318C138.517 19.2408 137.656 18.2043 135.804 18.2043C133.925 18.2043 132.947 19.5408 132.947 21.8589V30.2319H130.065V15.9139H132.947V17.277C133.655 16.2411 134.987 15.6138 136.458 15.6138C138.392 15.6138 139.617 16.3497 140.38 17.7135C141.415 16.4318 142.532 15.6138 144.765 15.6138C148.088 15.6138 149.744 17.1168 149.744 21.9161ZM124.56 26.168V24.1227C123.798 23.7404 122.711 23.4954 121.185 23.4954C119.388 23.4954 118.138 24.3135 118.138 25.6223C118.138 27.0409 119.143 27.9953 120.995 27.9953C122.493 27.9953 123.907 27.068 124.56 26.168ZM121.786 15.6138C124.973 15.6138 127.443 17.1684 127.443 20.4137V30.2319H124.56V28.8139C123.581 29.7954 122.084 30.5319 120.532 30.5319C118.217 30.5319 115.431 29.2226 115.431 25.7043C115.431 22.5133 118.026 21.0681 121.267 21.0681C122.602 21.0681 123.771 21.259 124.56 21.6132V20.5495C124.56 18.9951 123.394 18.1228 121.651 18.1228C120.18 18.1228 119.037 18.3952 117.919 19.0229L116.83 16.8955C118.191 16.0498 119.77 15.6138 121.786 15.6138ZM96.4444 26.168V24.1227C95.6817 23.7404 94.5946 23.4954 93.0693 23.4954C91.2715 23.4954 90.0204 24.3135 90.0204 25.6223C90.0204 27.0409 91.0267 27.9953 92.8788 27.9953C94.3764 27.9953 95.7909 27.068 96.4444 26.168ZM93.6697 15.6138C96.8565 15.6138 99.3259 17.1684 99.3259 20.4137V30.2319H96.4444V28.8139C95.4635 29.7954 93.9682 30.5319 92.4158 30.5319C90.1007 30.5319 87.3141 29.2226 87.3141 25.7043C87.3141 22.5133 89.9096 21.0681 93.1513 21.0681C94.4855 21.0681 95.6546 21.259 96.4444 21.6132V20.5495C96.4444 18.9951 95.2775 18.1228 93.5346 18.1228C92.0641 18.1228 90.9199 18.3952 89.8033 19.0229L88.7133 16.8955C90.0752 16.0498 91.6542 15.6138 93.6697 15.6138ZM113.702 22.0225V30.2319H110.82V22.1318C110.82 19.2408 109.73 18.2043 107.878 18.2043C105.999 18.2043 104.83 19.5408 104.83 21.8589V30.2319H101.948V15.9139H104.83V17.277C105.538 16.2411 107.111 15.6138 108.582 15.6138C111.904 15.6138 113.702 17.4627 113.702 22.0225ZM79.7877 27.941C81.8032 27.941 83.2126 26.4131 83.2126 23.3862C83.2126 19.7859 81.7489 18.2043 79.6787 18.2043C78.3445 18.2043 76.9599 19.1044 76.2244 20.0316V26.0587C76.8502 26.9045 78.3716 27.941 79.7877 27.941ZM80.1959 15.6138C83.2742 15.6138 86.0336 17.8499 86.0336 23.3041C86.0336 28.2138 83.0289 30.5319 80.0602 30.5319C78.6169 30.5319 77.0408 29.7683 76.2516 28.8954V30.2319H73.3694V12.9951L76.2516 11.4475V17.277C77.2861 16.3226 78.6983 15.6138 80.1959 15.6138Z" fill="white"/>
<path d="M70.5848 13.7463H67.2148C64.9105 11.3682 61.8831 10.0747 58.7992 10.0747C55.6621 10.0825 52.6879 11.3682 50.3773 13.7463H47.0146C49.5366 9.99657 54.0492 7.48486 58.7992 7.48486C63.621 7.48317 68.1426 10.0713 70.5848 13.7463ZM198.115 20.3741C198.886 20.5638 199.716 20.8071 200.498 21.0658C201.594 21.4236 201.92 22.2461 201.92 23.1332C201.92 24.7997 200.76 27.325 199.524 28.6423C198.821 29.3924 198.26 29.7433 197.557 29.7433C197.149 29.7433 196.703 29.654 196.152 29.4756C195.311 29.2068 194.28 28.8116 193.696 28.5795C193.745 29.3607 193.763 29.7428 193.763 31.0442C193.763 33.1218 191.427 33.2774 190.111 33.2774C188.853 33.2774 187.317 33.0365 186.112 32.4866C184.755 31.8305 184.317 31.1943 184.317 29.0273C184.317 28.1595 184.376 27.5459 184.421 26.9135C183.677 27.1989 182.87 27.4858 182.081 27.7388C180.085 28.3944 179.221 26.237 178.816 24.9917C178.417 23.8165 178.283 22.7381 178.283 21.8091C178.283 19.6478 178.966 18.9164 180.613 18.3832C181.45 18.1155 182.517 17.8431 183.13 17.684C182.634 17.0823 182.107 16.4087 181.623 15.7356C181.324 15.341 181.199 14.9555 181.199 14.5932C181.199 13.3903 182.434 12.4059 183.251 11.8143C184.268 11.1237 186.159 10.0742 187.86 10.0742C188.787 10.0742 189.391 10.4715 190.158 11.4548C190.68 12.1545 191.276 13.0681 191.616 13.6043C192.038 12.9448 192.52 12.2394 193.012 11.576C193.461 11.0269 194.011 10.7999 194.571 10.7999C195.571 10.7999 196.612 11.4079 197.301 11.9015C198.246 12.6193 199.363 13.7147 199.991 14.8508C200.349 15.4701 200.535 15.9784 200.535 16.4669C200.535 17.0415 200.277 17.6087 199.74 18.3384C199.223 19.0398 198.527 19.8946 198.115 20.3741ZM195.36 19.8946C195.888 19.8946 196.826 20.0418 197.753 20.2823C197.605 19.2696 197.026 17.1095 194.917 15.5997C194.71 15.4537 194.536 15.3887 194.378 15.3887C194.066 15.3887 193.796 15.6682 193.796 15.9758C193.796 16.2612 193.998 16.5888 194.294 16.9834C194.703 17.524 195.368 18.3137 195.368 19.045C195.368 19.5183 195.091 19.82 194.922 19.9377C195.067 19.9062 195.211 19.8946 195.36 19.8946ZM196.322 25.9132C196.981 24.9554 197.346 24.0564 197.346 23.6726C197.346 23.2967 196.981 23.1405 196.742 23.1405C196.408 23.1405 196.099 23.3956 195.754 23.8759C195.242 24.6073 194.448 25.8668 193.409 25.5266C193.294 25.4848 193.184 25.4427 193.111 25.382C193.279 25.6844 193.359 26.0206 193.435 26.3416C193.531 26.8165 193.613 27.4602 193.667 28.1814C194.304 27.8373 195.414 27.1433 196.322 25.9132ZM192.807 25.0148C192.711 24.7877 192.661 24.5121 192.666 24.1912C192.666 23.6596 192.8 23.046 193.038 22.2999C193.471 20.9899 193.961 20.374 194.477 20.1C193.82 20.18 192.912 19.7655 191.884 19.029C190.755 18.2088 190.313 17.5594 190.206 16.9956C190.082 17.6348 189.394 18.3696 188.376 19.106C187.233 19.9229 186.475 20.1334 185.906 20.0559C186.481 20.3689 186.97 21.2401 187.363 22.4335C187.596 23.1297 187.698 23.6319 187.698 24.0751C187.698 24.4593 187.628 24.7493 187.511 24.9859C187.999 24.5444 188.987 24.3451 190.247 24.3451C191.651 24.3451 192.397 24.6196 192.807 25.0148ZM189.834 28.884C190.425 28.884 190.622 28.5947 190.622 28.2704C190.622 27.8351 190.192 27.6046 189.514 27.402C188.658 27.141 187.207 26.7855 187.207 25.6981C187.207 25.5827 187.222 25.4729 187.257 25.3836C187.016 25.6383 186.713 25.8115 186.421 25.9762C186.009 26.2242 185.419 26.4891 184.795 26.7688C185.474 27.4707 187.228 28.884 189.834 28.884ZM184.268 22.6865C184.244 21.8001 184.136 20.3175 185.186 19.9869C185.289 19.9377 185.367 19.9274 185.449 19.9365C185.016 19.7219 184.296 19.029 183.387 17.9903C182.945 18.9033 182.134 20.9922 182.933 23.38C183.109 23.9291 183.456 24.0332 183.765 23.9341C184.192 23.7955 184.278 23.3783 184.268 22.6865ZM186.018 15.196C185.718 15.4027 185.618 15.6217 185.618 15.7989C185.618 15.9824 185.763 16.4007 186.271 16.4007C187.002 16.4007 187.979 15.7633 188.986 15.7633C189.929 15.7633 190.158 16.4352 190.192 16.5366C190.219 16.1024 190.604 15.1808 191.395 13.9433C191.115 13.8968 190.726 13.8662 190.273 13.8662C189.099 13.8662 187.528 14.1088 186.018 15.196Z" fill="white"/>
</svg>
