<?xml version="1.0" encoding="UTF-8"?>
<svg id="Capa_1" data-name="Capa 1" xmlns="http://www.w3.org/2000/svg" viewBox="0 0 1080 1080">
  <defs>
    <style>
      .cls-1 {
        fill: #f1911b;
      }

      .cls-1, .cls-2, .cls-3, .cls-4, .cls-5, .cls-6, .cls-7, .cls-8, .cls-9 {
        stroke-width: 0px;
      }

      .cls-2 {
        fill: #fcfdfd;
      }

      .cls-3 {
        fill: #010101;
      }

      .cls-4 {
        fill: #33a8df;
      }

      .cls-5 {
        fill: #fff;
      }

      .cls-6 {
        fill: #74b5e4;
      }

      .cls-7 {
        fill: #ffe475;
      }

      .cls-8 {
        fill: #1d1d1b;
      }

      .cls-9 {
        fill: #e71d79;
      }
    </style>
  </defs>
  <path class="cls-5" d="M768.11,669.22c-1.66-7.49-2.77-15.79-3.61-23.41-.37-4-.64-8.06-.84-12.14,3.88-12.11,35.85-116.1,5.87-166.98h-459.53c-29.98,50.87,1.98,154.86,5.87,166.98-.2,4.08-.47,8.14-.84,12.14-.84,7.62-1.94,15.92-3.61,23.41-.7,3.84-2.19,9.33-3.18,13.14-3.17,10.96-4.79,22.36-4.82,33.78-.01,35.2,17.55,57.9,46.76,65.33,1.41,1.22,2.81,2.45,4.15,3.74,3.77,3.6,6.95,7.73,9.55,12.24,15.63,27.36,19.6,60.35,14.13,91.15-2.12,10.41-2.75,21.2-1.17,31.73,2.94,20.93,15.2,41.66,35.01,50.46,4.87,2.18,10.01,3.68,15.22,4.7,5.2,1.01,10.47,1.54,15.76,1.61,13.1,29.16,48.2,41.7,64.78,34.55,17.54-7.55,31.71-6.89,31.71-6.89h1.07s14.18-.66,31.71,6.89c16.58,7.15,51.69-5.4,64.78-34.56,5.22-.08,10.44-.61,15.58-1.6,5.21-1.01,10.34-2.52,15.22-4.7,19.81-8.8,32.08-29.53,35.01-50.46,1.59-10.52.96-21.32-1.17-31.73-5.47-30.8-1.5-63.78,14.13-91.15,2.6-4.51,5.78-8.64,9.55-12.24,1.33-1.29,2.73-2.52,4.15-3.74,29.21-7.43,46.77-30.13,46.76-65.33-.03-11.42-1.65-22.82-4.82-33.78-.99-3.81-2.48-9.3-3.18-13.14Z"/>
  <g>
    <path class="cls-9" d="M540.02,335.26c-54.36-.08-109.98-3.18-165.32-9.21-11.82-1.29-23.74-3.08-35.27-4.82l-6.65-1,.31-2.34c5.23-38.99,12.7-74.23,22.2-104.74,6.37-17.78,13.13-33.72,20.7-48.81,15.38-30.67,31.06-51.38,49.33-65.17,10.38-7.83,20.08-11.99,28.82-12.37h.03c3.71,0,6.95.58,9.92,1.72,4.83,1.85,9.27,4.95,13.57,7.95,1.65,1.15,3.27,2.28,4.88,3.32l17.53,11.24c14.34,9.2,27.04,13.52,39.96,13.59.17,0,.34,0,.51,0,2.29,0,4.29-.12,6.28-.34,17.32-1.92,32.34-12.06,46.87-21.87,3.23-2.18,6.44-4.34,9.63-6.4.97-.62,1.95-1.28,2.92-1.95,3.1-2.1,6.3-4.28,9.91-5.63,2.74-1.03,5.83-1.55,9.17-1.55,3.47.13,6.82.75,10.18,1.85,11.1,3.61,21.62,10.99,33.1,23.22,16.76,17.86,30.98,40.88,44.76,72.47,3.83,8.76,7.62,18.44,11.59,29.6,9.42,30.44,16.8,65.43,21.98,104.11l.31,2.34-2.33.35c-8.06,1.2-16.13,2.39-24.23,3.41-20.02,2.51-42.08,4.71-67.44,6.74-34.22,2.73-69.38,4.2-104.51,4.36h-.66c-1.4,0-8.08-.07-8.08-.07Z"/>
    <path class="cls-9" d="M87.41,534.35c-14.69-16.74-26.66-35.98-35.58-57.2l-.69-1.63,1.36-1.14c5.17-4.31,12.75-11.1,20.55-19.72-28.87-11.81-36.24-35.74-37.01-38.52l-.08-.29-.07-3.46,3.06.45c5.35,1.38,19.56,4.6,35.78,4.6,1.97,0,3.92-.05,5.83-.14-6.64-23.53-10.9-56.22-10.95-56.56l-.18-1.46,1.22-.83,1.2-.62,1.41.56c19.68,12.19,32.03,20,43.89,30.29,1.7-7.95,3.44-13.4,5.57-20.04,2.28-7.14,4.87-15.24,8.3-29.13l1.1-4.45,3.02,3.44c17.17,19.53,26.55,30.27,34.42,40.49,3.54-7.17,6.51-12.53,9.63-18.16,3.81-6.87,8.12-14.65,14.21-27.12l1.96-4.01,2.26,3.85c7.17,12.23,11.86,19.52,16.39,26.57,3.44,5.35,6.71,10.44,10.77,17.25,5.01-7.48,9.19-13.29,14.71-20.97,3.86-5.36,8.37-11.64,14.28-20.03l2.31-3.28,1.79,3.58c5.4,10.79,9.23,18.17,12.57,24.6,3.57,6.87,6.48,12.48,10.11,19.94,11.01-13.59,22.39-26.65,32.28-37.05l2.41-2.53,1.49,3.16c6.55,13.85,13.57,29.84,19.53,44.41,11.69-12.14,21.84-22.69,33.09-35.94l2.41-2.83,1.58,3.36c6.4,13.57,13.88,28.67,21.25,42.86,3.44-4.19,6.38-7.84,9.05-11.16,7.73-9.61,13.32-16.56,22.53-25.9l2.3-2.33,1.53,2.89c6.59,12.47,15.28,28.25,22.65,41.14,3.03-4.02,5.64-7.55,8.01-10.75,8.03-10.86,13.34-18.04,22.37-27.09l2.18-2.18,13.73,23.11c4.59,7.62,9.34,15.23,11.91,19.31,2.75-3.96,7.85-11.36,12.78-18.8,5.35-8.16,11.36-16.24,14.47-20.34l1.9-2.5,1.91,2.49c6.48,8.45,10.77,14.85,16.21,22.95,3.11,4.64,6.59,9.81,11.04,16.21,7.81-12.36,13.42-21.82,20.98-34.56l4.68-7.88,2.18,2.18c9.02,9.05,14.32,16.22,22.35,27.08,2.37,3.21,4.99,6.75,8.03,10.78,7.36-12.88,16.05-28.65,22.64-41.14l1.53-2.89,2.3,2.33c9.2,9.34,14.78,16.28,22.51,25.88,2.68,3.33,5.62,6.98,9.07,11.19,7.35-14.16,14.84-29.25,21.26-42.86l1.59-3.36,2.4,2.83c11.25,13.24,21.4,23.8,33.08,35.94,5.96-14.58,12.99-30.57,19.53-44.41l1.49-3.15,2.41,2.53c9.88,10.38,21.25,23.44,32.28,37.05,3.64-7.46,6.55-13.07,10.12-19.94,3.34-6.43,7.17-13.81,12.56-24.6l1.79-3.58,2.31,3.28c5.89,8.37,10.4,14.64,14.25,19.99,5.53,7.7,9.72,13.51,14.74,21.01,4.06-6.8,7.33-11.89,10.76-17.23,4.53-7.05,9.22-14.35,16.4-26.58l2.26-3.85,1.96,4.01c6.1,12.47,10.42,20.26,14.22,27.13,3.12,5.63,6.09,10.98,9.63,18.15,7.86-10.22,17.25-20.95,34.42-40.49l3.03-3.44,1.1,4.45c3.43,13.89,6.02,21.99,8.3,29.13,2.12,6.65,3.86,12.1,5.57,20.05,11.24-9.73,22.47-16.69,41.53-28.5l6.4-3.97-.64,4.99c-.45,3.51-4.41,33.74-10.7,56.09,1.91.09,3.86.14,5.83.14,16.24,0,30.45-3.22,35.81-4.6l2.99-.77v3.41l-.09.57c-.76,2.79-8.05,26.76-37.03,38.6,7.85,8.68,15.48,15.5,20.68,19.83l1.35,1.13-.67,1.63c-8.69,20.94-20.26,39.91-34.39,56.36l-3.03,3.53-1.11-4.52c-7.49-30.49-29.31-56.92-61.45-74.42-30.52-16.63-65.55-24.71-107.1-24.71-33.06,0-65.48,4.89-96.84,9.62-14.56,2.19-28.3,4.26-41.77,5.82-46.68,5.41-95.52,5.41-142.75,5.41s-95.82,0-142.51-5.41c-13.58-1.57-27.22-3.63-41.65-5.81-31.44-4.74-63.9-9.63-96.96-9.63-41.54,0-76.57,8.08-107.09,24.71-31.36,17.09-53.28,44.46-60.13,75.1l-1.03,4.6-3.11-3.54Z"/>
  </g>
  <g>
    <g>
      <path class="cls-6" d="M729.03,251.13c-4.9-5.84-9.79-11.67-9.79-11.67,0,0-3.28,6.9-6.55,13.8-3.36,6.84-6.72,13.67-6.72,13.67,0,0,8.27-.87,16.51-2,8.25-1.07,16.49-2.15,16.49-2.15,0,0-4.97-5.83-9.94-11.65Z"/>
      <path class="cls-6" d="M686.79,243.25s-3.44,6.77-6.88,13.55c-3.51,6.78-7.03,13.56-7.03,13.56,0,0,8.28-.79,16.56-1.57,8.26-.93,16.53-1.86,16.53-1.86,0,0-4.83-5.92-9.66-11.83-4.76-5.92-9.51-11.85-9.51-11.85Z"/>
      <path class="cls-6" d="M654.25,246.19s-3.59,6.72-7.19,13.43c-3.67,6.72-7.34,13.44-7.34,13.44,0,0,8.29-.64,16.58-1.29,8.3-.59,16.57-1.43,16.57-1.43,0,0-4.69-6-9.38-12.01-4.62-6.08-9.25-12.16-9.25-12.16Z"/>
      <path class="cls-6" d="M621.66,248.44s-3.75,6.66-7.49,13.31c-3.82,6.59-7.65,13.18-7.65,13.18,0,0,8.31-.3,16.61-.86,8.3-.5,16.6-1,16.6-1,0,0-4.55-6.16-9.11-12.31-4.48-6.16-8.96-12.32-8.96-12.32Z"/>
      <path class="cls-6" d="M589.02,249.98s-3.9,6.52-7.8,13.04c-3.97,6.52-7.95,13.05-7.95,13.05,0,0,8.31-.21,16.63-.43,8.31-.36,16.62-.71,16.62-.71,0,0-4.41-6.23-8.82-12.47l-8.68-12.48Z"/>
      <path class="cls-6" d="M556.35,250.68s-4.05,6.45-8.09,12.91c-4.12,6.45-8.24,12.91-8.24,12.91,0,0,8.32-.07,16.63-.14,8.32-.01,16.63-.29,16.63-.29,0,0-4.27-6.31-8.53-12.62-4.19-6.38-8.39-12.77-8.39-12.77Z"/>
      <path class="cls-6" d="M523.68,250.68s-4.19,6.38-8.39,12.77c-4.27,6.31-8.53,12.62-8.53,12.62,0,0,8.31.27,16.63.29,8.32.07,16.63.14,16.63.14,0,0-4.12-6.45-8.24-12.91-4.05-6.45-8.1-12.91-8.1-12.91Z"/>
      <path class="cls-6" d="M491.01,249.98s-4.34,6.24-8.68,12.48c-4.41,6.23-8.82,12.47-8.82,12.47,0,0,8.31.36,16.62.71,8.31.21,16.63.43,16.63.43,0,0-3.97-6.52-7.95-13.05-3.9-6.52-7.8-13.04-7.8-13.04Z"/>
      <path class="cls-6" d="M458.38,248.44s-4.48,6.16-8.96,12.32c-4.55,6.16-9.11,12.31-9.11,12.31,0,0,8.3.5,16.6,1,8.3.56,16.61.86,16.61.86,0,0-3.82-6.59-7.65-13.18-3.75-6.66-7.49-13.31-7.49-13.31Z"/>
      <path class="cls-6" d="M425.78,246.19l-9.25,12.16c-4.69,6-9.38,12.01-9.38,12.01,0,0,8.27.84,16.57,1.43,8.29.64,16.58,1.29,16.58,1.29,0,0-3.67-6.72-7.34-13.44-3.59-6.72-7.19-13.43-7.19-13.43Z"/>
      <path class="cls-6" d="M393.24,243.25s-4.76,5.92-9.51,11.85c-4.83,5.92-9.66,11.83-9.66,11.83,0,0,8.26.93,16.53,1.86,8.28.79,16.56,1.57,16.56,1.57,0,0-3.51-6.78-7.03-13.56-3.44-6.77-6.88-13.55-6.88-13.55Z"/>
      <path class="cls-6" d="M360.79,239.45s-4.9,5.84-9.79,11.67c-4.97,5.83-9.94,11.65-9.94,11.65,0,0,8.25,1.07,16.49,2.15,8.24,1.13,16.51,2,16.51,2,0,0-3.36-6.84-6.72-13.67-3.28-6.9-6.55-13.8-6.55-13.8Z"/>
    </g>
    <g>
      <path class="cls-6" d="M373.44,228.96s4.92-5.84,9.85-11.67c4.85-5.9,9.7-11.8,9.7-11.8,0,0-2.03-.23-5.08-.59-3.05-.33-7.11-.83-11.17-1.4-8.11-1.08-16.23-2.17-16.23-2.17,0,0,3.19,6.9,6.38,13.8,3.27,6.91,6.55,13.83,6.55,13.83Z"/>
      <path class="cls-6" d="M406.62,232.83s4.77-5.98,9.55-11.97c4.69-5.99,9.38-11.98,9.38-11.98,0,0-8.15-.79-16.3-1.59-8.15-.79-16.27-1.8-16.27-1.8,0,0,3.37,6.85,6.73,13.7,3.45,6.82,6.91,13.64,6.91,13.64Z"/>
      <path class="cls-6" d="M439.9,235.81s4.62-6.07,9.23-12.14c4.54-6.15,9.08-12.3,9.08-12.3,0,0-8.18-.44-16.33-1.15-8.16-.67-16.32-1.33-16.32-1.33,0,0,3.54,6.74,7.09,13.48,3.63,6.73,7.26,13.46,7.26,13.46Z"/>
      <path class="cls-6" d="M473.23,237.98s4.46-6.23,8.92-12.46c4.38-6.23,8.75-12.46,8.75-12.46,0,0-8.18-.36-16.36-.72-8.17-.49-16.34-.97-16.34-.97,0,0,3.72,6.66,7.43,13.32,3.8,6.65,7.6,13.29,7.6,13.29Z"/>
      <path class="cls-6" d="M506.62,239.23s4.3-6.31,8.6-12.62c4.22-6.36,8.43-12.73,8.43-12.73,0,0-8.19-.06-16.37-.32-4.09-.11-8.18-.22-11.25-.3-3.07-.12-5.11-.21-5.11-.21,0,0,3.89,6.56,7.77,13.12,3.97,6.53,7.94,13.05,7.94,13.05Z"/>
      <path class="cls-6" d="M540.02,239.71s4.13-6.46,8.27-12.91c4.05-6.45,8.1-12.91,8.1-12.91,0,0-8.19.07-16.37.14-8.19-.07-16.37-.14-16.37-.14,0,0,4.05,6.45,8.11,12.91,4.13,6.46,8.27,12.91,8.27,12.91Z"/>
      <path class="cls-6" d="M573.42,239.23s3.97-6.53,7.94-13.05c3.89-6.56,7.77-13.12,7.77-13.12,0,0-2.04.08-5.11.21-3.07.08-7.16.19-11.25.3-8.18.27-16.37.32-16.37.32,0,0,4.22,6.36,8.43,12.73,4.3,6.31,8.6,12.62,8.6,12.62Z"/>
      <path class="cls-6" d="M606.8,237.98s3.8-6.65,7.6-13.29c3.72-6.66,7.43-13.32,7.43-13.32,0,0-8.17.49-16.34.97-8.18.36-16.36.72-16.36.72,0,0,4.38,6.23,8.75,12.46,4.46,6.23,8.92,12.46,8.92,12.46Z"/>
      <path class="cls-6" d="M640.14,235.81s3.63-6.73,7.26-13.46c3.54-6.74,7.09-13.48,7.09-13.48,0,0-8.16.67-16.32,1.33-8.16.71-16.33,1.15-16.33,1.15,0,0,4.54,6.15,9.08,12.3,4.62,6.07,9.23,12.14,9.23,12.14Z"/>
      <path class="cls-6" d="M673.41,232.83s3.45-6.82,6.91-13.64c3.37-6.85,6.73-13.7,6.73-13.7,0,0-8.12,1.01-16.27,1.8-8.15.79-16.3,1.59-16.3,1.59,0,0,4.69,5.99,9.38,11.98,4.77,5.98,9.55,11.97,9.55,11.97Z"/>
      <path class="cls-6" d="M706.6,228.96s3.27-6.91,6.55-13.83c3.19-6.9,6.38-13.8,6.38-13.8,0,0-8.11,1.08-16.23,2.17-4.05.56-8.12,1.07-11.17,1.4-3.05.35-5.08.59-5.08.59,0,0,4.85,5.9,9.7,11.8,4.92,5.84,9.85,11.67,9.85,11.67Z"/>
    </g>
    <g>
      <path class="cls-6" d="M358.69,189.61s5.66.61,15.56,1.67c9.89,1.15,24.03,2.47,41.02,3.91,8.48.79,17.69,1.43,27.43,2.06,9.73.71,20.03,1.04,30.65,1.71,10.64.42,21.62.96,32.8,1.12,11.17.34,22.53.28,33.88.35,11.35-.08,22.7,0,33.88-.35,11.18-.16,22.16-.71,32.8-1.12,10.62-.67,20.91-1.01,30.65-1.71,9.74-.63,18.95-1.26,27.43-2.06,16.98-1.44,31.13-2.76,41.02-3.91,9.9-1.06,15.55-1.67,15.55-1.67,0,0-5.61.94-15.43,2.59-4.91.84-10.89,1.71-17.76,2.67-6.86,1.02-14.62,2.1-23.11,3-8.48,1.04-17.69,1.94-27.43,2.86-9.74.99-20.04,1.69-30.7,2.38-10.67.52-21.69,1.17-32.9,1.44-11.21.45-22.6.5-34,.67-11.39-.18-22.79-.22-34-.67-11.21-.27-22.23-.92-32.9-1.44-10.66-.69-20.96-1.4-30.7-2.38-9.75-.91-18.95-1.82-27.43-2.85-8.49-.89-16.25-1.98-23.11-3-6.87-.96-12.85-1.83-17.76-2.67-9.82-1.65-15.43-2.59-15.43-2.59Z"/>
      <path class="cls-6" d="M340.27,276.73s6.24.54,17.15,1.5c10.91,1.04,26.5,2.21,45.21,3.52,9.35.72,19.5,1.29,30.23,1.86,10.72.64,22.06.93,33.76,1.54,11.71.38,23.81.87,36.11,1.02,12.3.31,24.8.24,37.3.31,12.5-.07,25,0,37.3-.31,12.3-.15,24.4-.64,36.11-1.02,11.7-.61,23.03-.91,33.76-1.54,10.73-.57,20.87-1.14,30.23-1.85,18.71-1.31,34.31-2.48,45.21-3.51,10.91-.95,17.15-1.49,17.15-1.49,0,0-6.2.88-17.04,2.42-5.42.78-12.03,1.59-19.61,2.49-7.57.95-16.13,1.96-25.49,2.79-9.35.96-19.49,1.8-30.22,2.65-10.73.92-22.07,1.58-33.8,2.21-11.74.48-23.86,1.08-36.2,1.33-12.33.42-24.86.47-37.4.63-12.53-.17-25.07-.21-37.4-.63-12.33-.25-24.46-.85-36.2-1.33-11.73-.63-23.07-1.3-33.8-2.21-10.73-.85-20.88-1.69-30.22-2.65-9.36-.83-17.91-1.84-25.49-2.79-7.58-.9-14.18-1.71-19.6-2.48-10.85-1.54-17.04-2.42-17.04-2.42Z"/>
    </g>
  </g>
  <path class="cls-3" d="M540,495.62c18.78.01,37.56-.31,56.3-1.01,33.61-1.26,67.3-4.22,100.31-10.8,50.17-6.53,51.84-8.69,71.96-10.99,9.55,43.56,11.85,120.15-7.36,166.41,35.01.93,81.96-6.53,128.52-23.29,89.37-32.17,149.39-95.84,165.34-188.71,3.94-22.96-3.3-46.51-18.74-63.41-.16-.19-.29-.4-.46-.59-13.31-15.42-32.89-25.69-51.51-33.2-20.25-8.17-41.62-13.47-63.19-16.66-44.51-6.57-90.27-5.47-134.9-.63-9.21,1-18.37,2.3-27.52,3.64-4.64-33.69-11.76-68.57-21.51-101.16-10.21-41.09-26.13-81.83-53.27-113.71-16.41-19.28-41.14-39.06-68.22-34.44-11.95,2.04-21.68,9.7-31.68,16.03-7.5,4.74-15,9.49-22.49,14.24-5.95,3.66-13.92,5.73-21.59,5.79-7.68-.06-15.65-2.13-21.59-5.79-7.49-4.75-14.99-9.49-22.49-14.24-10-6.33-19.73-13.99-31.68-16.03-27.08-4.62-51.81,15.16-68.22,34.44-27.14,31.88-43.06,72.62-53.27,113.71-9.76,32.59-16.87,67.48-21.51,101.16-9.15-1.35-18.31-2.64-27.52-3.64-44.63-4.85-90.39-5.94-134.9.63-21.57,3.18-42.95,8.49-63.19,16.66-18.62,7.51-38.2,17.78-51.51,33.2-.16.19-.3.4-.46.59-15.43,16.9-22.68,40.46-18.74,63.41,15.95,92.88,75.98,156.54,165.34,188.71,46.56,16.76,94.21,23.35,129.22,22.41-19.21-46.26-17.61-121.97-8.05-165.53,20.09,2.3,21.78,4.45,71.96,10.99,33.02,6.58,66.71,9.54,100.31,10.8,18.74.7,37.52,1.02,56.3,1.01ZM540,127.05c2.3.01,4.64-.11,7.01-.37,21.55-2.42,39.28-17.21,56.86-28.63,3.91-2.54,7.83-5.69,12.23-7.36,5.93-2.25,12.77-1.59,18.69.34,12.57,4.09,23.19,13.1,32.09,22.59,19.38,20.65,33.06,46,44.31,71.78,4.22,9.68,7.99,19.52,11.53,29.44,8.67,28.04,16.31,62.16,21.86,103.62-8.05,1.2-16.1,2.39-24.17,3.4-22.37,2.81-44.86,4.93-67.34,6.73-37.64,3.01-75.36,4.42-113.08,4.36-37.71.06-75.43-1.36-113.08-4.36-22.47-1.79-44.96-3.92-67.34-6.73-8.08-1.01-16.13-2.2-24.17-3.4,5.55-41.46,13.19-75.58,21.86-103.62,3.54-9.92,7.31-19.76,11.53-29.44,11.25-25.79,24.93-51.13,44.31-71.78,8.9-9.48,19.52-18.5,32.09-22.59,5.92-1.93,12.76-2.59,18.69-.34,4.4,1.67,8.32,4.82,12.23,7.36,17.58,11.42,35.31,26.21,56.86,28.63,2.38.27,4.71.39,7.01.37ZM540,366.01s.01-.01.02-.02c10.71,13.98,15.53,22.47,29.25,42.02,9.93-15.61,16.05-26.06,26.04-42.88,12.14,12.17,17.36,20.77,32.35,40.49,7.49-12.99,17.03-30.23,24.49-44.35h0c12.96,13.16,18.64,21.47,33.73,39.7,7.47-14.28,15.77-30.88,22.97-46.15,12.12,14.27,23.13,25.6,35.74,38.7,5.93-14.73,13.53-32.19,20.86-47.7,11.81,12.41,24.19,26.96,34.53,39.85,8.13-16.91,12.44-24.17,24.31-47.91,15.51,22.03,21.4,29.47,31.06,44.13,10.59-18.06,15.52-23.96,29.11-47.11,11.83,24.19,16.65,30.24,25.55,48.78,8.23-11.01,17.07-21.16,36.67-43.46,7.2,29.15,10.92,33.62,14.68,53.16,12.61-11.5,24.48-18.73,46.44-32.33-.31,2.42-4.64,35.92-11.47,58.6,19.92,1.51,38.29-2.52,45.38-4.35,0,.09,0,.18,0,.26-.84,3.07-8.34,27.37-38.81,38.23,8.91,10.22,17.81,18.15,23.23,22.66-8.53,20.57-19.81,39.2-34,55.72-7.65-31.14-29.87-58.11-62.62-75.95-30.88-16.83-66.29-25-108.24-25-33.25,0-65.74,4.9-97.21,9.65-14.53,2.19-28.26,4.26-41.67,5.81-46.51,5.39-95.24,5.39-142.37,5.39s-95.86,0-142.37-5.39c-13.41-1.55-27.14-3.62-41.67-5.81-31.47-4.75-63.96-9.65-97.21-9.65-41.95,0-77.36,8.18-108.24,25-32.76,17.84-54.98,44.81-62.62,75.95-14.18-16.52-25.46-35.15-34-55.72,5.42-4.51,14.32-12.45,23.23-22.66-30.47-10.87-37.97-35.16-38.81-38.23,0-.09,0-.18,0-.26,7.08,1.83,25.46,5.86,45.38,4.35-6.83-22.68-11.16-56.18-11.47-58.6,21.96,13.61,33.83,20.84,46.44,32.33,3.75-19.53,7.47-24.01,14.68-53.16,19.59,22.29,28.44,32.45,36.67,43.46,8.9-18.54,13.72-24.58,25.55-48.78,13.58,23.15,18.52,29.05,29.11,47.11,9.66-14.66,15.55-22.1,31.06-44.13,11.88,23.75,16.18,31.01,24.31,47.91,10.34-12.89,22.72-27.44,34.53-39.85,7.33,15.52,14.93,32.98,20.86,47.7,12.61-13.1,23.62-24.43,35.74-38.7,7.2,15.27,15.5,31.87,22.97,46.15,15.09-18.23,20.77-26.54,33.73-39.7h0c7.46,14.12,17,31.35,24.49,44.35,14.99-19.72,20.21-28.32,32.35-40.49,9.99,16.83,16.11,27.28,26.04,42.88,13.72-19.55,18.54-28.05,29.25-42.02,0,0,.01.01.02.02Z"/>
  <g>
    <path class="cls-9" d="M908.7,497.53c-34.01,19.05-79.99,25.5-119.34,25.93-.15,2.06-.32,4.15-.5,6.27,39.86-2.46,86.33-10.98,119.84-32.2Z"/>
    <path class="cls-9" d="M920.72,514.58c-37.99,22.61-89.61,30.54-133.72,31.76-.34,2.48-.71,4.98-1.11,7.51,44.94-3.61,97.28-13.99,134.83-39.28Z"/>
    <path class="cls-9" d="M932.74,531.62c-42.41,26.49-100.14,35.84-149.68,37.75-.61,2.94-1.26,5.91-1.96,8.9,50.84-4.67,109.56-16.89,151.64-46.65Z"/>
    <path class="cls-9" d="M944.75,548.67c-47.3,30.73-111.54,41.4-167.33,43.89-.99,3.51-2.07,7.04-3.21,10.59,57.27-5.81,123.93-20.18,170.54-54.49Z"/>
    <path class="cls-9" d="M856.52,612.77c36.27-10.01,71.11-24.89,100.25-47.06-52.04,34.93-124.69,46.96-186.92,50.12-1.07,2.91-2.2,5.83-3.37,8.75,18.47-.76,56.21-3.34,90.05-11.81Z"/>
    <path class="cls-9" d="M169.52,497.47c33.51,21.22,79.98,29.74,119.84,32.2-.19-2.11-.36-4.2-.5-6.27-39.34-.43-85.32-6.88-119.34-25.93Z"/>
    <path class="cls-9" d="M157.5,514.51c37.55,25.29,89.89,35.67,134.83,39.28-.4-2.53-.77-5.04-1.11-7.51-44.11-1.22-95.73-9.15-133.72-31.76Z"/>
    <path class="cls-9" d="M145.49,531.56c42.08,29.76,100.8,41.98,151.64,46.65-.7-2.99-1.36-5.96-1.96-8.9-49.54-1.91-107.27-11.25-149.67-37.75Z"/>
    <path class="cls-9" d="M133.47,548.6c46.62,34.31,113.27,48.67,170.54,54.49-1.14-3.55-2.22-7.08-3.21-10.59-55.79-2.49-120.03-13.16-167.33-43.89Z"/>
    <path class="cls-9" d="M121.45,565.64c29.14,22.17,63.97,37.05,100.25,47.06,33.84,8.46,71.57,11.05,90.04,11.81-1.18-2.92-2.3-5.84-3.37-8.75-62.23-3.16-134.88-15.19-186.92-50.12Z"/>
  </g>
  <path class="cls-6" d="M91.07,492.9c22.96-55.08,87.25-78.63,142.48-84.52,67.44-7.19,134.58,8.97,201.7,12.73,34.88,1.95,69.83,2.17,104.76,2.18,34.92,0,69.88-.23,104.76-2.18,60.06-3.36,119.6-16.45,179.93-14.26,56.46,2.05,125.45,19.89,156.96,71.41,2.86,4.68,5.19,9.59,7.3,14.64-30.05-51.17-91.93-70.07-148.01-72.83-58.33-2.88-115.24,11.72-173.01,16.62-33.98,2.88-68.1,3.35-102.19,3.39-34.9.04-69.82.33-104.71-.68-33.47-.97-66.54-4.24-99.67-9.02-32.6-4.7-65.19-9.73-98.18-10.51-57.84-1.38-126.11,11.32-163.53,60.01-3.18,4.14-5.95,8.53-8.59,13.03Z"/>
  <g>
    <path class="cls-3" d="M589.97,122.17c9.27,16.53,24.63,26.84,42.36,32.56,17.32,5.59,35.57,5.43,53.19,9.37-18.2,8.27-39.7,9.9-58.78,3.9-18.63-5.87-39.82-24.03-36.77-45.82Z"/>
    <path class="cls-3" d="M490.07,122.17c3.12,21.8-18.19,39.93-36.77,45.82-19.07,6.04-40.58,4.34-58.78-3.9,17.61-3.95,35.87-3.75,53.19-9.37,17.72-5.74,33.1-16.01,42.36-32.56Z"/>
  </g>
  <g>
    <path class="cls-3" d="M728.02,296.32c1.36,11.38,2.73,22.75,4.11,34.13,3.13-.82,6.26-1.65,9.39-2.49-4.55-10.53-9.05-21.08-13.5-31.64Z"/>
    <path class="cls-3" d="M716.39,331.51c3.15-.76,6.29-1.52,9.44-2.29-4.32-10.6-8.59-21.2-12.82-31.82,1.12,11.37,2.25,22.75,3.38,34.12Z"/>
    <path class="cls-3" d="M700.63,332.47c3.16-.69,6.32-1.39,9.48-2.1-4.09-10.66-8.14-21.32-12.14-32,.88,11.37,1.77,22.73,2.66,34.1Z"/>
    <path class="cls-3" d="M684.88,333.34c3.18-.63,6.35-1.26,9.52-1.91-3.86-10.71-7.68-21.44-11.46-32.17.65,11.36,1.29,22.72,1.94,34.08Z"/>
    <path class="cls-3" d="M669.12,334.11c3.19-.56,6.38-1.13,9.56-1.71-3.63-10.77-7.22-21.55-10.77-32.33.41,11.35.81,22.7,1.21,34.04Z"/>
    <path class="cls-3" d="M653.36,334.79c3.2-.5,6.4-1,9.59-1.51-3.4-10.82-6.76-21.65-10.09-32.49.17,11.33.33,22.67.49,34Z"/>
    <path class="cls-3" d="M637.6,335.37c3.21-.43,6.42-.87,9.62-1.31-3.17-10.88-6.3-21.76-9.4-32.64-.07,11.32-.14,22.64-.23,33.95Z"/>
    <path class="cls-3" d="M621.84,335.85c3.22-.36,6.43-.73,9.65-1.11-2.93-10.92-5.84-21.85-8.7-32.79-.31,11.3-.62,22.6-.94,33.9Z"/>
    <path class="cls-3" d="M606.08,336.23c3.22-.3,6.45-.6,9.67-.91-2.7-10.97-5.37-21.94-8.01-32.92-.54,11.28-1.1,22.56-1.66,33.83Z"/>
    <path class="cls-3" d="M590.32,336.51c3.23-.23,6.46-.47,9.69-.71-2.47-11.01-4.9-22.03-7.31-33.05-.78,11.25-1.57,22.51-2.37,33.76Z"/>
    <path class="cls-3" d="M574.56,336.7c3.23-.16,6.47-.33,9.7-.51-2.23-11.06-4.44-22.11-6.61-33.18-1.01,11.23-2.04,22.46-3.08,33.68Z"/>
    <path class="cls-3" d="M558.8,336.79c3.24-.09,6.47-.2,9.71-.3-1.99-11.09-3.97-22.19-5.91-33.29-1.25,11.2-2.51,22.4-3.79,33.6Z"/>
    <path class="cls-3" d="M543.04,336.79c3.24-.03,6.47-.06,9.71-.1-1.76-11.13-3.49-22.27-5.21-33.4-1.48,11.17-2.98,22.34-4.5,33.5Z"/>
    <path class="cls-3" d="M527.28,336.69c3.24.04,6.47.07,9.71.1-1.52-11.17-3.02-22.33-4.5-33.5-1.71,11.14-3.45,22.27-5.21,33.4Z"/>
    <path class="cls-3" d="M511.53,336.49c3.24.11,6.47.21,9.71.3-1.28-11.2-2.55-22.4-3.8-33.6-1.95,11.1-3.92,22.2-5.91,33.29Z"/>
    <path class="cls-3" d="M495.78,336.2c3.23.17,6.46.34,9.7.51-1.04-11.23-2.07-22.45-3.09-33.68-2.18,11.06-4.38,22.12-6.61,33.18Z"/>
    <path class="cls-3" d="M480.03,335.81c3.23.24,6.46.48,9.69.71-.8-11.25-1.6-22.51-2.37-33.76-2.41,11.02-4.85,22.04-7.31,33.05Z"/>
    <path class="cls-3" d="M464.29,335.32c3.22.31,6.45.61,9.67.91-.56-11.28-1.12-22.56-1.66-33.83-2.64,10.98-5.31,21.95-8.01,32.92Z"/>
    <path class="cls-3" d="M448.54,334.73c3.21.38,6.43.75,9.65,1.11-.32-11.3-.64-22.6-.94-33.9-2.87,10.93-5.77,21.86-8.7,32.79Z"/>
    <path class="cls-3" d="M432.81,334.05c3.21.44,6.41.88,9.62,1.31-.08-11.32-.16-22.64-.23-33.95-3.1,10.89-6.23,21.77-9.4,32.64Z"/>
    <path class="cls-3" d="M426.67,334.79c.16-11.33.32-22.67.49-34-3.33,10.84-6.69,21.67-10.09,32.49,3.2.51,6.39,1.01,9.59,1.51Z"/>
    <path class="cls-3" d="M410.91,334.11c.4-11.35.81-22.69,1.21-34.04-3.55,10.79-7.14,21.56-10.77,32.33,3.19.58,6.37,1.14,9.56,1.71Z"/>
    <path class="cls-3" d="M395.16,333.34c.65-11.36,1.29-22.72,1.94-34.08-3.78,10.73-7.6,21.46-11.46,32.17,3.17.64,6.35,1.28,9.52,1.91Z"/>
    <path class="cls-3" d="M379.4,332.47c.89-11.37,1.78-22.73,2.66-34.1-4.01,10.68-8.05,21.34-12.14,32,3.16.71,6.32,1.41,9.48,2.1Z"/>
    <path class="cls-3" d="M363.65,331.51c1.13-11.37,2.26-22.74,3.38-34.12-4.23,10.62-8.5,21.23-12.82,31.82,3.14.77,6.29,1.54,9.44,2.29Z"/>
    <path class="cls-3" d="M347.9,330.45c1.38-11.37,2.75-22.75,4.11-34.13-4.45,10.56-8.95,21.1-13.5,31.64,3.13.83,6.26,1.66,9.39,2.49Z"/>
  </g>
  <g>
    <path class="cls-5" d="M423.51,684.61s0,0,0,0c-2.65-2.57-17.72-20.98-30.56-37.16,12.83,16.18,27.91,34.59,30.56,37.16Z"/>
    <path class="cls-3" d="M392.95,647.45c12.83,16.18,27.91,34.59,30.55,37.16,0,0,0,0,0,0-2.65-2.57-17.72-20.98-30.56-37.16h0Z"/>
  </g>
  <g>
    <path class="cls-5" d="M390.58,644.45c-.52-.66-1.04-1.31-1.54-1.96.51.65,1.02,1.3,1.54,1.96Z"/>
    <path class="cls-3" d="M389.03,642.49c.51.65,1.02,1.3,1.54,1.96-.52-.66-1.04-1.31-1.54-1.96h0Z"/>
  </g>
  <g>
    <path class="cls-5" d="M667.73,605.42s-.02,0-.03,0c.01,0,.02,0,.03,0Z"/>
    <path class="cls-3" d="M667.73,605.42s-.02,0-.03,0c.01,0,.02,0,.03,0h0Z"/>
  </g>
  <g>
    <path class="cls-5" d="M463.11,628.29c5.83,0,11.09-.13,12.95-.4.02-.23.12-.51.11-.72,0,.21-.09.49-.11.72-1.86.27-7.11.41-12.95.4Z"/>
    <path class="cls-3" d="M476.16,627.17c0,.21-.09.49-.11.72-1.81.27-6.82.4-12.46.4h0c5.64,0,10.65-.13,12.46-.4.02-.23.12-.51.11-.72h0ZM463.11,628.29c.16,0,.33,0,.49,0h0c-.16,0-.33,0-.49,0h0Z"/>
  </g>
  <g>
    <path class="cls-5" d="M656.03,605.91c.74-.12,1.94-.22,3.44-.3-1.5.08-2.7.18-3.44.3.03.3-.04.66.1.88-.15-.22-.07-.58-.1-.88Z"/>
    <path class="cls-3" d="M659.46,605.61c-.2.01-.39.02-.58.03.19-.01.38-.02.58-.03h0ZM658.89,605.64s0,0,0,0c0,0,0,0,0,0h0ZM658.88,605.64s0,0,0,0c0,0,0,0,0,0h0ZM658.88,605.64c-.97.06-1.79.12-2.41.2.62-.08,1.44-.15,2.41-.2h0ZM656.47,605.84c-.16.02-.31.04-.44.06.03.3-.04.66.1.88-.15-.22-.07-.58-.1-.88.13-.02.28-.04.44-.06h0Z"/>
  </g>
  <g>
    <path class="cls-5" d="M662.82,605.49c.41-.01.84-.02,1.27-.03-.43,0-.86.02-1.27.03Z"/>
    <path class="cls-3" d="M664.09,605.46c-.43,0-.86.02-1.27.03.41-.01.84-.02,1.27-.03h0Z"/>
  </g>
  <path class="cls-3" d="M554.13,844.35c1.58,0,3.27.61,4.92,1.86,1.97,1.49,3.49,3.41,4.49,5.66.91,2.06,1.68,4.21,2.37,6.36,3.04,9.48,4.06,19.3,4.64,29.18.16,2.8-.05,3.01-2.94,3.19-4.74.29-9.44,1.06-14.75,1.06-.49,0-.99,0-1.49-.02-.33-.05-.68-.08-1.04-.08-1.1,0-2.33.19-3.61.19-1.19,0-2.43-.16-3.62-.79-.78-2.84-.59-5.78-.56-8.65.1-9.9,1.29-19.7,3.8-29.3.4-1.55,1.01-3.09,1.76-4.5,1.46-2.75,3.64-4.16,6.05-4.16M527.82,844.4c2.26,0,4.12,1.19,5.55,3.6,1.68,2.82,2.45,5.99,3.06,9.16,1.01,5.24,1.66,10.53,2.28,15.84.63,5.35.52,10.65.18,15.97-.16,2.51-.24,2.63-2.89,2.7-.81.02-1.62.03-2.45.03-1.33,0-2.73-.02-4.28-.02-.26,0-.52,0-.78,0-4.88,0-10.05-.85-15.27-1.17-1.61-.1-2.06-.59-2.01-2.11.36-11.7,1.86-23.21,5.95-34.26.9-2.45,2.14-4.71,3.98-6.6,1.02-1.05,2.14-1.96,3.53-2.5,1.12-.44,2.17-.66,3.15-.66M583.84,846.83c1.39,0,2.72.57,3.74,1.6,1.39,1.39,2.51,2.95,3.43,4.68,1.22,2.31,2.04,4.77,2.67,7.28,1.89,7.57,2.49,15.33,3.1,23.08.19,2.46-.22,2.88-2.53,3.26-5.91.97-11.82,1.91-17.74,2.82-.29.04-.58.06-.87.06-.5,0-1-.04-1.47-.04-.58-.77-.54-1.59-.54-2.4,0-6.15-.1-12.31.05-18.46.14-5.55,1.44-10.89,3.52-16.04.67-1.67,1.5-3.23,2.92-4.4,1.19-.98,2.48-1.43,3.71-1.43M497.9,846.84c1.64,0,3.27.8,4.62,2.35,1.08,1.24,1.68,2.75,2.28,4.25,2.09,5.17,3.1,10.58,3.29,16.1.21,5.98.04,11.98,0,17.97,0,.63-.19,1.25-.31,1.95-.61.13-1.21.18-1.79.18-2.21,0-4.3-.72-6.42-.96-4.18-.47-8.31-1.28-12.46-2-1.8-.31-2.23-.74-2.12-2.59.5-9.06,1.21-18.1,3.99-26.81.99-3.1,2.43-5.97,4.69-8.41,1.27-1.37,2.75-2.03,4.23-2.03M476.93,851.42c5.81,10.85,4.77,22.13,4.52,33.21-.64.41-1.24.54-1.79.54-.79,0-1.51-.27-2.19-.41-4.59-.9-9.15-1.93-13.71-2.98-2.7-.62-2.97-1.04-2.71-3.59.52-5.15,1.41-10.22,2.97-15.17.55-1.76,1.31-3.18,2.9-4.27,3.3-2.27,6.48-4.72,10.02-7.33M605.19,851.7c3.61,2.67,7.25,5.3,10.81,8.03.59.45,1.03,1.26,1.26,1.99,1.76,5.54,3.18,11.16,3.34,17.03.05,1.87-.21,2.44-1.88,2.82-5.5,1.23-11.02,2.4-16.54,3.53-.24.05-.46.07-.66.07-.87,0-1.32-.48-1.34-1.41-.23-8.7-.77-17.45,1.88-25.93.65-2.09.96-4.44,3.14-6.13M623.95,865.5c5.9,3.24,10.96,6.02,16.02,8.82.23.13.46.48.46.73,0,.25-.24.63-.46.72-1.05.4-2.12.79-3.21,1.05-4.06.95-7.95,2.63-12.15,3.01-1.38-4.55-.32-9.15-.66-14.32M457.61,865.73v13.94c-3.93-.18-10.11-1.82-16.25-4.27,1.5-1.81,8.26-5.86,16.25-9.67M435.47,877.83c.12,6.44-.85,12.14-2.51,17.73-.46,1.56-1.28,2.97-2.39,4.18-.78.85-1.66,1.28-2.55,1.28s-1.71-.39-2.52-1.18c-1.56-1.52-2.4-3.44-2.73-5.56-.49-3.21-.44-6.45-.22-9.68.08-1.14.66-1.75,1.62-2.16.3-.13.6-.24.9-.36,3.27-1.33,6.53-2.66,10.41-4.24M647.05,878.1c.07,0,.13,0,.19.03,3.42,1.4,6.83,2.85,10.25,4.27,1.14.48,1.79,1.22,1.75,2.54-.07,2.74.05,5.48-.12,8.21-.16,2.46-1.04,4.73-2.77,6.55-.84.89-1.75,1.33-2.65,1.33-.96,0-1.9-.51-2.71-1.53-.88-1.12-1.69-2.41-2.15-3.75-1.95-5.67-2.39-11.58-2.85-17.48.5-.07.83-.18,1.07-.18M440.56,878.81c.21,0,.46.04.73.11,5.01,1.33,10,2.72,14.99,4.08.93.25,1.26.91,1.28,1.8.01.49,0,.97,0,2.02-.55,3.62-1.13,7.8-1.82,11.95-.35,2.08-1.05,4.09-2.09,5.93-1.36,2.4-2.98,3.61-4.68,3.61-1.48,0-3.03-.91-4.53-2.75-1.65-2.03-2.89-4.29-3.44-6.89-1.29-6.05-1.83-12.17-1.62-18.35.03-1,.4-1.5,1.18-1.5M641.03,878.83c.88,0,1.28.53,1.33,1.65.07,1.45.01,2.91.01,4.18-.45,4.7-.54,9.25-1.58,13.69-.72,3.07-2.11,5.78-4.29,8.04-1.25,1.29-2.53,1.94-3.77,1.94-1.42,0-2.78-.85-3.95-2.56-.9-1.31-1.64-2.82-2.09-4.35-1.58-5.3-2.25-10.76-2.5-16.28-.06-1.33.48-1.98,1.84-2.33,4.7-1.2,9.36-2.58,14.04-3.85.36-.1.68-.15.95-.15M619.52,884.61c.8,0,1.17.47,1.26,1.55.17,2.09.23,4.19.29,5.49-.1,6.64-.55,12.42-2.8,17.9-.55,1.34-1.11,2.71-1.91,3.9-1.24,1.86-3.13,2.81-5.06,2.81-1.6,0-3.22-.66-4.51-1.99-.77-.8-1.4-1.79-1.87-2.8-.67-1.46-1.23-2.99-1.66-4.54-1.46-5.31-2.14-10.75-2.52-16.24-.11-1.67.22-2.19,1.61-2.49,5.51-1.2,11.04-2.37,16.56-3.52.22-.05.42-.07.6-.07M462.45,884.64c.73,0,1.39.22,2.04.36,4.75.97,9.48,2.01,14.22,3.04,2.17.47,2.54.83,2.3,2.89-.63,5.62-1.03,11.29-2.81,16.71-.55,1.68-1.21,3.35-2,4.93-1.12,2.24-3.49,3.7-5.89,3.7-2.13,0-4.29-1.14-5.66-3.89-2.04-4.1-3.26-8.46-3.66-13-.29-3.21-.21-6.46-.24-9.7-.01-1.6.09-3.21.14-4.66.56-.28,1.07-.38,1.55-.38M417.21,884.9c-.09,2.17-.95,3.35-1.92,4.43-.4.44-.9.77-1.49.77-.22,0-.44-.04-.68-.14-1.13-.46-1.86-1.27-2.02-2.49-.07-.51.25-.95.74-1.09,1.68-.49,3.37-.93,5.37-1.48M665.21,885.13c1.28,0,2.31.78,3.47.86.79.05,1.61.32,1.98,1.13.33.72-1.02,2.48-2.12,2.85-.22.07-.43.11-.64.11-.59,0-1.11-.29-1.51-.74-1.04-1.16-1.82-2.46-2.06-4.08.31-.09.6-.13.88-.13M595.48,889.65c.26,0,.56.19.91.3.11.41.35.87.34,1.33-.22,7.3-.63,14.57-2.68,21.64-.68,2.34-1.56,4.61-2.87,6.67-1.19,1.87-2.83,2.82-4.54,2.82-1.38,0-2.8-.62-4.07-1.87-1.52-1.51-2.49-3.38-3.37-5.3-3.02-6.56-4.38-13.53-5.07-20.66-.09-.87.13-1.66,1.11-1.81,6.72-1.06,13.44-2.09,20.17-3.11.02,0,.05,0,.07,0M486.4,889.73c2.38,0,4.35.69,6.38.98,4.33.61,8.65,1.32,12.97,1.92,1.1.15,1.89.48,1.79,1.74-.63,8.15-2.35,16.01-6.26,23.27-.53.99-1.22,1.92-2,2.74-1.3,1.38-2.78,2.05-4.22,2.05-1.77,0-3.47-1.03-4.67-3.06-.9-1.52-1.68-3.16-2.22-4.85-2.56-7.94-3.21-16.12-3.11-24.72.46-.05.91-.08,1.34-.08M569.39,893.53c1.21,0,1.35.29,1.44,1.77.56,9.79-.09,19.41-4.11,28.55-.99,2.25-2.19,4.3-4.15,5.88-1.87,1.5-3.99,2.24-6.08,2.24-2.69,0-5.32-1.23-7.26-3.64-1.46-1.81-2.24-3.92-2.87-6.1-1.72-5.95-2.24-12.09-2.74-18.21-.24-2.98-.99-6.02-.06-9.03,1.15-.3,2.3-.37,3.46-.37,1.1,0,2.21.06,3.32.06.65,0,1.3-.02,1.95-.09.51.02,1.02.03,1.53.03,4.94,0,9.88-.84,14.86-1.07.26-.01.49-.02.69-.02M512.58,893.54c.09,0,.17,0,.27,0,1.13.04,2.27.09,3.39.23,5.58.7,11.19.9,16.8.9,1.19,0,2.38,0,3.57-.02.01,0,.02,0,.03,0,.46,0,.93.12,2.03.26-.48,9.33-1.05,18.35-3.28,27.17-.59,2.35-1.5,4.61-3.12,6.52-1.89,2.23-4.47,3.38-7.1,3.38-1.9,0-3.82-.6-5.52-1.84-1.89-1.37-3.28-3.12-4.21-5.24-1.56-3.56-2.9-7.19-3.58-11.05-1.06-6.08-1.63-12.19-1.12-18.37.13-1.55.5-1.94,1.83-1.94M554.13,839.45h0c-4.3,0-8.08,2.46-10.37,6.75-.94,1.77-1.68,3.65-2.18,5.57-.24.92-.47,1.85-.69,2.78-.65-3.01-1.57-6.12-3.32-9.06-2.3-3.87-5.76-5.99-9.76-5.99-1.58,0-3.23.33-4.92.99-1.89.73-3.56,1.89-5.27,3.65-2.16,2.22-3.81,4.94-5.06,8.32-.53,1.42-1.02,2.86-1.48,4.33-.49-1.77-1.08-3.5-1.75-5.18l-.04-.09c-.67-1.65-1.5-3.71-3.09-5.54-2.26-2.6-5.21-4.03-8.31-4.03h0c-2.9,0-5.68,1.28-7.83,3.6-2.56,2.76-4.44,6.11-5.76,10.24-.04.11-.07.22-.1.33-.75-2.33-1.71-4.67-2.96-7.01l-2.67-4.98-4.55,3.35c-1.06.78-2.09,1.55-3.1,2.3-2.34,1.75-4.56,3.4-6.8,4.94-1.85,1.27-3,2.82-3.76,4.28l-4.87,2.32c-2.23,1.06-12.75,6.18-16.93,9.96l-4.95,2.02-2.14.87-8.27,3.37-.3.12c-.23.09-.45.18-.67.28-.64.27-1.21.6-1.73.98l-4.61,1.26-1.64.45c-1.32.36-2.57.7-3.81,1.06-2.83.83-4.61,3.53-4.22,6.43.39,2.91,2.22,5.23,5.03,6.38.82.33,1.67.5,2.53.5,1.42,0,2.78-.46,3.95-1.32.05.45.11.9.18,1.35.51,3.33,1.9,6.13,4.14,8.32,2.17,2.13,4.43,2.57,5.94,2.57,2.27,0,4.46-1.02,6.16-2.87.84-.91,1.55-1.89,2.14-2.94.71,3.01,2.17,5.88,4.34,8.54,3.07,3.76,6.22,4.55,8.32,4.55,1.98,0,5.66-.74,8.61-5.54.68,2.36,1.58,4.66,2.68,6.88,2.06,4.14,5.81,6.61,10.04,6.61s8.31-2.51,10.26-6.4c.56-1.12,1.09-2.33,1.58-3.62.39,1.67.85,3.29,1.36,4.89.62,1.92,1.52,3.88,2.66,5.83,2.05,3.48,5.29,5.47,8.88,5.47,2.83,0,5.59-1.27,7.78-3.58,1.1-1.16,2.02-2.43,2.75-3.78.64-1.18,1.23-2.4,1.78-3.64.7,3.22,1.84,6.54,3.59,10.54,1.29,2.93,3.24,5.37,5.82,7.23,2.5,1.81,5.4,2.77,8.4,2.77,4.14,0,8.09-1.86,10.84-5.11,1.9-2.25,3.25-5.02,4.13-8.48.25-.97.47-1.95.68-2.93.24,1.08.52,2.16.83,3.25.7,2.43,1.7,5.26,3.76,7.81,2.8,3.47,6.83,5.46,11.07,5.46,3.27,0,6.43-1.14,9.14-3.31,2.97-2.38,4.54-5.38,5.57-7.72,1.4-3.17,2.4-6.37,3.11-9.51.14.33.29.65.43.97,1.05,2.29,2.31,4.69,4.37,6.73,2.14,2.12,4.81,3.29,7.51,3.29,3.46,0,6.62-1.86,8.67-5.09,1.42-2.24,2.52-4.76,3.44-7.93.29-1.01.56-2.02.79-3.03.29.76.6,1.51.94,2.25.72,1.57,1.69,3.01,2.79,4.15,2.17,2.25,5.03,3.49,8.04,3.49,3.63,0,7.05-1.87,9.13-4.99,1.06-1.6,1.75-3.27,2.36-4.74.52-1.28.96-2.56,1.33-3.86.2.34.42.66.64.98,2.8,4.07,6.21,4.68,7.99,4.68s4.55-.6,7.29-3.44c2.6-2.7,4.42-5.98,5.4-9.77.48.84,1.05,1.68,1.7,2.51,1.73,2.2,4.05,3.41,6.56,3.41,2.26,0,4.46-1.02,6.21-2.87,2.39-2.53,3.8-5.76,4.08-9.36,1.16.83,2.51,1.27,3.93,1.27.74,0,1.48-.12,2.19-.36,2.35-.79,4.18-2.92,4.95-4.69.71-1.63.74-3.34.08-4.81-1.04-2.3-3.19-3.75-5.93-3.99-.1-.03-.26-.09-.39-.14-.81-.3-2.03-.75-3.59-.75h0c-.76,0-1.51.11-2.25.32l-.11.03c-.81-1.16-1.99-2.09-3.49-2.71-1.21-.5-2.41-1.01-3.62-1.51-2.22-.93-4.43-1.86-6.66-2.77-.64-.26-1.33-.4-2.04-.4-.65,0-1.16.11-1.5.18-.06.01-.13.03-.22.04l-.24.03c-.44-1.42-1.43-2.7-2.74-3.43-4.24-2.35-8.48-4.68-13.22-7.28l-2.82-1.55-5.2-2.86c-.48-.85-1.17-1.77-2.14-2.51-2.71-2.08-5.49-4.12-8.17-6.09-.9-.66-1.8-1.33-2.7-1.99l-2.98-2.2-2.93,2.28c-3.08,2.4-3.96,5.53-4.54,7.6-.05.17-.1.35-.15.52-.62-1.88-1.33-3.58-2.16-5.13-1.17-2.21-2.57-4.12-4.29-5.84-1.96-1.96-4.52-3.04-7.21-3.04h0c-2.45,0-4.81.88-6.83,2.55-2.36,1.95-3.56,4.41-4.34,6.34-.81,2.01-1.5,4.02-2.06,6.02-.01-.04-.03-.08-.04-.12-.86-2.68-1.67-4.85-2.55-6.85-1.34-3.03-3.36-5.58-6.01-7.58-2.47-1.87-5.19-2.85-7.88-2.85h0Z"/>
  <path class="cls-3" d="M442.44,909.03c2.93,3.23,8.51,4.38,12.09-.72,1.01-1.44,1.82-3.02,2.77-4.61,1.1.34.67,1.3.92,1.91.25.59.41,1.23.58,1.85.75,2.66,1.71,5.22,3.09,7.64,3.69,6.49,11.81,5.67,15.48.75,1.37-1.84,2.15-3.99,2.9-6.13.53-1.51.95-3.06,1.66-5.35.59,2.82,1.01,4.9,1.47,6.97.66,3.02,1.67,5.92,3.05,8.69.43.87.9,1.73,1.48,2.5,2.69,3.6,7.8,4.82,11.98,1.31,1.9-1.59,3.19-3.65,4.22-5.88,1-2.19,1.96-4.39,3.21-7.21.52,2.24.95,3.85,1.26,5.48.78,4.01,2.17,7.82,4.05,11.41,2.21,4.23,5.54,7.14,10.51,7.71,4.38.5,7.94-1,10.77-4.34,1.38-1.63,2.36-3.49,3.02-5.5.92-2.77,1.66-5.59,2.05-8.49.23-1.72.39-3.48,1.37-5.25.85,4.05,1.56,7.87,2.46,11.64.6,2.52,1.63,4.9,3.2,7.03,4.8,6.53,13.24,6.07,17.64,2.27,1.87-1.62,3.43-3.42,4.47-5.68,1.69-3.69,3.09-7.48,3.88-11.48.28-1.41.64-2.81,1.12-4.9,1.14,2.68,1.94,4.72,2.86,6.7,1.03,2.21,2.26,4.28,4.03,6.03,4.38,4.32,10.45,2.69,12.93-1.46,2.18-3.66,3.51-7.63,4.37-11.79.36-1.73.75-3.46,1.22-5.62.85,2.6,1.54,4.74,2.26,6.88.57,1.7,1.37,3.29,2.47,4.72,3.3,4.29,11.19,5.76,15.2-.86,1.44-2.38,2.32-4.98,3.14-7.62.42-1.35.8-2.72,1.3-4.41,1.05,1.85,1.8,3.48,2.82,4.9,3.34,4.66,8.47,4.96,12.4.75,2.48-2.65,4.14-5.78,4.93-9.35.32-1.42.65-2.83,1.13-4.9.69,1.59,1.08,2.66,1.6,3.66.6,1.14,1.22,2.29,1.98,3.32,3.03,4.15,7.49,3.82,10.65.06,1.61-1.91,2.42-4.21,2.89-6.61.25-1.26.28-2.57.4-3.83.48-.32.98-.27,1.29.1,2.18,2.67,4.73,3.13,7.69,1.28-.15,3.3-.9,4.42-3.38,4.94-.62.13-1.28.04-1.92.08-1.99.13-2.03.15-2.62,2.11-.24.77-.35,1.59-.63,2.34-2.55,6.67-8.75,8.94-14.98,5.5-.42-.23-.78-.59-1.2-.82-1.09-.59-1.93-.38-2.45.61-.22.43-.32.92-.53,1.35-3.32,6.76-9.48,8.68-16.17,5.07-.57-.31-1.14-.7-1.75-.81-.4-.07-1.07.16-1.27.48-.5.81-.9,1.73-1.18,2.65-2.64,8.49-13.55,10.38-19.56,5.17-3.03-2.63-3.3-2.45-4.88,1.32-.19.45-.37.9-.56,1.34-3.4,8.14-11.29,8.63-16.99,5.74-1.91-.97-3.4-2.47-4.97-3.87-.85-.76-1.92-.54-2.42.45-.51,1.01-.86,2.11-1.41,3.09-2.85,5.02-6.96,8.47-12.64,9.89-6.64,1.67-12.14-.19-16.54-5.38-.63-.74-1.12-1.59-1.76-2.31-.35-.4-.95-.33-1.31-.01-.47.43-.8,1.01-1.19,1.51-5.41,6.94-13.4,8.73-21.21,4.71-3.7-1.91-6.57-4.71-8.54-8.39-.53-1-.94-2.06-1.46-3.07-.55-1.05-1.48-1.25-2.39-.51-1,.82-1.91,1.76-2.94,2.55-2.1,1.6-4.43,2.59-7.11,2.85-6.44.61-9.83-2.8-11.74-6.79-.63-1.31-1.09-2.71-1.72-4.01-.46-.96-1.58-1.13-2.47-.45-.51.39-.96.86-1.45,1.3-6.05,5.41-17,3.22-19.54-5.12-.24-.77-.52-1.54-.87-2.26-.41-.83-1.19-1.13-2.03-.77-.74.31-1.38.84-2.07,1.25-5.09,2.96-12.03.63-14.78-4.26-.47-.84-.75-1.79-1.19-2.66-.54-1.07-1.29-1.27-2.39-.66-.56.31-1.06.74-1.63,1.04-5.66,3-11.5,1.03-14.18-4.8-.34-.73-.66-1.5-.79-2.29-.38-2.18-1.09-3.32-3.8-3.14-2.96.2-3.64-.88-4.67-5.22,3.71,2.43,6.3,1.26,8.36-1.4,1.34.32,1.07,1.28,1.13,1.99.16,1.95.45,3.86,1.27,5.66.74,1.64,1.64,3.16,3.07,4.32,3.08,2.49,6.4,2.22,9.01-.78,1.07-1.23,1.94-2.59,2.53-4.12M600.6,852.07c-1.05,2.21-1.82,4.5-2.42,6.86-.32,1.25-.54,2.54-1.42,3.66-.77-2.36-1.48-4.67-2.27-6.95-1.06-3.1-2.65-5.89-4.89-8.31-4.19-4.54-9.98-3.63-13.51.66-1.14,1.39-1.86,3.02-2.51,4.69-1.34,3.45-2.27,7.01-2.95,10.64-1.11-.26-1.26-1.07-1.45-1.86-.75-3.16-1.76-6.23-3.03-9.22-1.16-2.72-2.77-5.12-4.96-7.13-1.72-1.58-3.71-2.57-6-3-3.48-.66-6.39.27-8.72,3-1.83,2.15-2.9,4.7-3.6,7.37-.91,3.44-1.59,6.94-2.61,11.46-.57-2.45-.92-4.01-1.31-5.56-.63-2.51-1.21-5.03-1.94-7.51-.36-1.23-.89-2.44-1.53-3.56-3.28-5.79-9.45-7.14-14.91-3.25-2.55,1.82-4.53,4.23-5.75,7.1-1.2,2.82-2.13,5.76-3.15,8.66-.47,1.35-.87,2.74-1.5,4.75-1.01-4.43-1.84-8.18-3.25-11.76-.72-1.82-1.5-3.59-2.79-5.08-3.65-4.2-9.28-4.65-13.19-.5-2.62,2.79-4.23,6.11-5.47,9.65-.61,1.74-1.06,3.55-1.81,6.1-1.76-4.77-2.58-9.04-4.75-12.86,5.6-4.58,11.7-7.93,17.77-11.32,1.21-.67,2.4-.68,3.73-.29,3.85,1.12,6.44,3.62,8.08,7.17.41.89.65,2.08,1.7,2.16,1.35.1,1.8-1.17,2.21-2.24,3.19-8.3,13.13-9.54,18.81-6.93,2.91,1.34,5.14,3.33,6.54,6.23.42.87.76,1.79,1.25,2.62.45.76,2.11.71,2.54-.06.47-.85.77-1.78,1.22-2.64,2.67-5.16,7.12-7.37,12.73-7.33,5.45.04,9.66,2.37,12.24,7.31.22.43.33.91.51,1.36.31.78.76,1.45,1.66,1.59,1.03.16,1.37-.67,1.75-1.36.47-.85.82-1.76,1.32-2.59,1.2-1.99,2.89-3.47,4.98-4.51,2.29-1.14,4.42-1.38,6.86.04,5.04,2.94,10.12,5.81,14.84,9.24,1.91,1.39,1.93,1.43.94,3.5Z"/>
  <path class="cls-3" d="M365.8,593.85c.46.81,1.26,1.51.84,2.64-1.6.11-3.24.11-4.83.35-4.14.62-7.87,2.12-10.28,5.77-3.32,5.04-4.39,12.25.57,18.06.89,1.05,1.79,2.1,2.85,3.35-1.98.78-3.65,1.34-5.24,2.09-4.66,2.19-7.7,5.77-9.15,10.75-2.2,7.59,1.64,14.97,9.15,17.38,1.2.39,2.53.39,3.62,1.39-.91,1.15-1.9,2.22-2.69,3.43-.78,1.21-1.47,2.52-2,3.87-3.09,7.79,1.09,18.44,12.67,18.62,1.19.02,2.48-.51,3.69.39-.91,2.68-1.74,5.31-1.55,8.12.25,3.65,1.13,7.03,4.01,9.59,4.73,4.19,10.84,4.38,15.32,1.67,1.18-.71,2.1-2.02,3.89-2.03,0,.71,0,1.32,0,1.92-.01.81-.08,1.62-.06,2.43.18,6.45,4.16,11.36,10.37,13.05,5.29,1.44,9.92.17,14.13-3.09,1.21-.93,2.34-1.96,3.56-2.99,4.16,8.67,8.26,12.04,14.72,11.87,8.17-.22,12.3-5.38,14.45-12.58,1.69.25,2.18,1.63,3.11,2.46,2.65,2.36,5.78,3.66,9.24,3.91,5.77.41,11.92-3.65,12.36-11.61.1-1.76.01-3.52.01-5.45.83.31,1.59.54,2.31.88,2.91,1.38,5.95,1.45,9.04.91,4.68-.81,8.18-4.22,9.27-8.84.61-2.62.24-5.16-.36-7.69-.29-1.24-1.07-2.37-.84-3.78,1.54-.67,3.17-.15,4.76-.31,7.65-.76,13.48-7.45,12.97-14.95-.27-4-2.66-6.84-5.23-9.59-.63-.68-1.87-.78-1.92-2.13,2.26-.61,4.58-1.14,6.73-2.18,7.1-3.45,10.43-10.31,8.06-17.21-1.71-4.99-5.02-8.64-10.16-10.35-1.2-.4-2.42-.72-3.79-1.13,1.63-1.57,3.19-2.96,4.61-4.48,6.13-6.56,2.71-16.97-3.36-20.17-2.62-1.38-5.32-2.37-8.33-2.32-1.28.02-2.57,0-4.03,0,.7-2.14,1.5-4.07,1.96-6.08,1.25-5.48-.61-9.99-4.97-13.29-3.95-2.99-8.49-3.77-13.37-2.48-1.34.35-2.52,1.4-4.17,1.12-.08-1.34-.08-2.63-.25-3.91-.85-6.47-5-11.27-11.01-12.8-4.8-1.22-8.91.36-12.75,3.13-1.28.92-2.04,2.5-3.72,3.07-.71-1.77-1.28-3.43-2.02-4.99-1.31-2.75-3.48-4.54-6.28-5.78-4.86-2.15-13.84-.56-16.97,6.45-.77,1.72-1.42,3.48-2.21,5.42-1.38-1.08-2.6-2.13-3.92-3.03-2.9-1.97-6.05-3.09-9.62-2.4-6.74,1.3-10.99,6.34-11.25,13.28-.04,1.09.36,2.22-.32,3.39-1.63-.68-3.22-1.52-4.91-2.03-5.34-1.61-10.33-1.07-14.34,3.17-3.61,3.81-5.42,10.45-2.37,15.77ZM354.1,618.45c-4.74-5.46-2.07-16.33,5.68-18.13,3.55-.82,7.02-1.07,10.52,0,.92.28,1.22,1.03.75,1.88-.38.71-.83,1.38-1.26,2.07-3.15,5.13-5.61,10.57-7.35,16.33-.32,1.07-.5,2.2-1.43,3-2.81-1.05-4.96-2.91-6.92-5.16ZM350.36,651.31c-4.73-1.55-7.71-5.78-7.4-10.7.27-4.24,2-7.77,5.51-10.32,3.82-2.77,7.34-3.47,12.05-2.27-1.23,7.8-1.49,15.66-.07,23.89-3.81.67-6.98.42-10.09-.6ZM364.25,678.2c-4.43,1.05-8.51.15-11.38-3.48-2.83-3.59-2.97-7.78-1-11.9,1.58-3.31,4.03-5.83,7.47-7.26.79-.33,1.65-.35,1.99.64,1.16,3.35,2.08,6.8,3.43,10.07,1.34,3.26,3.08,6.36,4.88,10.01-2.07.75-3.69,1.52-5.4,1.92ZM381.26,698.73c-5.22,3.34-13.21.45-14.51-6.21-.93-4.77.14-8.98,3.4-12.61.89-1,1.51-1,2.33-.03.42.49.78,1.04,1.21,1.52,1.95,2.17,3.82,4.41,5.89,6.45,2.07,2.04,4.33,3.88,6.78,6.04-1.4,2.28-3.2,3.62-5.11,4.84ZM413.06,707.09c-2.54,3.77-5.86,6.4-10.46,7.13-4.94.78-9.82-1.77-12.02-6.26-.84-1.71-1.1-3.18-.98-6.18.08-.59.19-1.71.42-2.81.37-1.74,1.09-2.07,2.68-1.2,6.1,3.37,12.5,5.93,19.35,7.31,1.32.27,1.66,1.03,1,2.01ZM392.95,647.45c-.8-1.01-1.6-2.01-2.38-3-.52-.66-1.04-1.31-1.54-1.96-.51-.65-1.01-1.29-1.51-1.92-2.23-2.84-4.3-5.51-6.12-7.89-.37-.48-.98-.9-.73-1.63.28-.52.73-.6,1.21-.6,8.41.08,16.82.14,25.23.27,2.63.04,2.68.13,3.44,2.95,3.76,14.04,7.49,28.1,11.24,42.15.62,2.34,1.27,4.68,1.87,7.02.04.15.08.3.11.45.09.45.09.91-.27,1.32,0,0,0,0,0,0,0,0,0,0,0,0-2.65-2.57-17.72-20.98-30.56-37.16ZM381.3,625.92c4.06-6.02,8.14-12.03,12.59-18.59,4.34,6.95,8.35,13.37,12.27,19.65-.3,1.09-1.02.93-1.62.93-7.28-.01-14.57-.09-21.85-.04-1.92.01-2.05-.98-1.39-1.95ZM442.14,631.22c-.39,3.53-12.14,44.95-14.98,52.74-.35-.67-.75-1.2-.91-1.8-4.41-16.55-8.8-33.1-13.17-49.66-.11-.43.03-.92.06-1.37,4.15-.57,25.06-.5,29,.1ZM413.66,627.5c1.34-3.24,9.68-15.65,13.07-19.44.14,0,.31-.04.44.01.14.06.27.19.36.32,4.44,6.31,8.87,12.63,13.63,19.42-6.97.48-23.58.27-27.49-.31ZM432.56,719.08c-3.99,1.25-7.66.28-10.73-2.55-2.19-2.01-3.59-4.52-4.01-7.51-.28-1.95-.28-3.08,2.4-2.71,6.45.9,12.84.16,19.21-.91.45-.08.92-.34,1.35.11.54,6.31-2.69,11.83-8.22,13.57ZM432.52,682.91c-.51.56-.91,1.36-2.03,1.24.05-.62.02-1.27.16-1.87,1.34-5.66,13.89-48.15,15.06-51.06,5.09-.54,26.94-.4,30.79.19-2.11,3.62-28.74,34.82-43.98,51.5ZM446.68,627.84c2.55-4.52,13.07-18.85,15.82-21.55,4.56,6.92,9.1,13.8,13.61,20.69.03.05.05.11.05.18,0,.21-.09.49-.11.72-1.86.27-7.11.41-12.95.4-2.19,0-4.46-.03-6.66-.07-.37,0-.73-.01-1.09-.02-1.09-.02-2.15-.05-3.18-.09-.68-.02-1.35-.05-1.99-.08-1.28-.06-2.46-.12-3.51-.19ZM453.48,712.7c-3.8-1.28-6.2-3.95-8.16-7.2-.36-.6-.23-1.24.48-1.59.29-.14.61-.2.92-.3,5.41-1.73,10.59-3.98,15.5-6.83,1.2-.69,1.83-.47,2.17.74.56,2.02,1.26,4.03,1.19,5.99.11,7.06-5.7,11.34-12.11,9.18ZM486.14,691.83c-.94,3.44-3.19,5.57-6.72,6.2-4.66.83-8.67-.25-11.94-4.62,5.7-4.28,10.64-8.91,14.8-14.35,3.42,3.47,4.98,8.69,3.86,12.78ZM502.74,665.7c.32,4.64-2.71,9.27-7.27,10.97-3.18,1.18-6.35,1.08-9.42-.42-.63-.31-.89-.92-.55-1.61.29-.58.66-1.11,1-1.66,2.71-4.43,4.97-9.08,6.61-14.02.3-.91.71-1.79,1.06-2.66,4.81,1.32,8.28,5.17,8.57,9.4ZM510.88,636.48c.62,2.68.17,5.18-1.32,7.4-3.02,4.49-7.42,6.52-12.75,6.67-.8.02-1.09-.51-1.04-1.26.03-.48.05-.97.14-1.45,1.31-7.04,1.12-14.11.24-21.49,7.87-.37,13.18,3.42,14.72,10.12ZM499.43,600.92c4.18,2.38,6.98,10.38,2.47,15.3-1.87,2.04-3.77,4.01-6.8,4.85-2-7.41-5.08-14.31-9.06-20.9,4.85-2,9.12-1.67,13.38.75ZM468.45,579.2c4.26-3.82,11.21-3.68,15.61.12,3.06,2.65,4.16,6.04,3.26,10.07-.58,2.59-1.91,4.77-3.51,7.24-.77-.67-1.19-.94-1.48-1.31-3.99-4.95-8.63-9.2-13.83-12.86-1.77-1.25-1.69-1.79-.05-3.27ZM452.99,560.98c5.5-.22,10.38,3.92,11.42,9.9.48,2.73.49,5.49-1.17,8.24-7-3.77-14.46-6.32-22.27-7.78,1.52-5.98,6.41-10.13,12.02-10.36ZM456.43,604.91c.73,0,1.72-.42,2.11.58.34.88-.44,1.5-.88,2.11-2.37,3.28-4.81,6.52-7.21,9.79-2.1,2.86-4.19,5.74-6.29,8.61-3.26-2.74-10.4-12.54-14.87-20.48,2.21-.11,3.98-.23,5.74-.27,7.13-.14,14.26-.26,21.39-.35ZM417.54,561.24c2.14-4.34,8.25-6.32,12.52-4.83,2.4.84,4.29,2.27,5.3,4.64.57,1.33,1.09,2.71,1.38,4.11,1.3,6.28.55,5.59-4.24,5.4-.97-.04-1.94,0-2.77,0-3.88-.21-7.54.5-11.23.93-2.12.25-2.51-.15-2.64-2.31-.17-2.8.43-5.39,1.68-7.94ZM424.24,605.99c-4.29,7.31-9.58,13.78-14.22,21.2-3.02-3.37-4.95-7.04-7.19-10.48-2.19-3.36-4.17-6.85-6.57-10.83,9.21-.66,24.02-.6,27.99.11ZM392.13,568.34c2.26-4.25,7.88-6.85,13.31-4.12,2.98,1.5,5.18,3.8,6.39,6.97.42,1.1.13,1.76-1.18,2.11-6.1,1.66-11.74,4.39-17.64,7.66-2.53-4.28-3.17-8.3-.88-12.62ZM369.23,581.59c2.59-4.05,7.45-5.57,12.45-3.85,1.99.69,3.86,1.67,5.54,2.97,2.57,1.99,2.65,2.33.14,4.22-4.94,3.73-9.21,8.14-13.55,13.31-1.39-1.32-2.47-2.28-3.48-3.31-4.36-4.44-3.51-9.57-1.1-13.34Z"/>
  <path class="cls-3" d="M692.21,576.72c.4-6.76-1.42-12.28-7.58-15.3-6.74-3.31-12.19-.3-17.34,4.54-1.89-7.53-5.74-12.64-13.88-12.99-2.51-.11-4.79.53-6.97,1.75-3.86,2.14-5.09,6.06-6.52,10.17-1.5-1.35-2.59-2.49-3.84-3.42-3.65-2.72-7.68-4.19-12.29-3.14-6.08,1.37-10.44,6.27-11.22,12.57-.18,1.42-.22,2.85-.34,4.51-1.56-.51-2.9-1.04-4.29-1.39-5.82-1.46-10.99-.2-15.12,4.18-3.97,4.22-4.39,9.19-2.32,14.48.39.99,1.32,1.84.82,3.25-1.73,0-3.52-.2-5.26.04-5.65.76-10.18,3.24-12.32,8.88-2.2,5.8-.85,10.78,3.63,15.03,1,.94,2.35,1.59,2.96,3.04-1.05.31-1.98.6-2.91.85-4.72,1.26-7.87,4.39-10.02,8.59-2.81,5.46-1.83,11.25,2.47,15.65,1.96,2.01,4.2,3.55,6.91,4.37,1.49.45,2.98.91,4.51,1.39-.33,1.59-1.91,1.81-2.62,2.85-.73,1.07-1.58,2.05-2.32,3.11-2.78,3.98-2.84,8.21-.77,12.44,2.48,5.07,6.64,7.78,12.28,8.26,1.41.12,2.9-.46,4.34.42-.54,2.03-1.2,4.03-1.58,6.09-1.14,6.13,2.37,12.2,8.08,13.77,3.16.87,6.39.98,9.56-.26,1.03-.4,1.95-1.18,3.27-1.05,0,2.06-.15,4.14.03,6.19.55,6.37,6.04,11.23,12.19,10.7,3.45-.3,6.6-1.53,9.24-3.91.92-.82,1.44-2.12,3.01-2.5.67,1.63,1.2,3.32,2.03,4.86,4.53,8.32,15.38,11,22.93,3.22,1.37-1.41,2.34-3.1,3.14-4.88.38-.85.4-1.92,1.62-2.31,5.27,5.65,11.56,8.43,19.17,5.29,7.38-3.05,9.14-9.37,8.41-17.17,1.79,1.11,3.09,2.01,4.49,2.75,3.5,1.85,7.08,1.99,10.77.48,5.96-2.44,8.38-7.73,7.86-14.18-.04-.52-.12-1.03-.21-1.54-.29-1.54-.77-3.06-1.11-4.6.1-.05.21-.14.31-.18.03-.01.07-.02.11-.02,1.13-.03,2.25-.04,3.38-.04,6.66,0,13.36-4.7,13.42-13.64.03-3.38-1.31-6.29-3.1-9.05-.76-1.17-2.07-1.95-2.53-3.6,1.35-.37,2.61-.66,3.82-1.06,7.6-2.47,10.84-10.67,9.08-16.64-1.62-5.52-4.8-9.39-10.02-11.78-1.43-.66-3.26-.51-4.36-2.02,1.14-1.37,2.36-2.67,3.39-4.11,2.49-3.49,3.28-7.31,2.16-11.52-1.83-6.87-5.9-10.48-12.92-11.31-1.54-.18-3.09-.26-4.51-.38-.35-1.01.22-1.48.49-2.04.29-.58.62-1.14.9-1.72,3-6.4-1.31-15.74-7.61-17.71-3.54-1.11-6.96-1.07-10.45.22-1.39.51-2.65,1.63-4.43,1.55ZM668.27,570.78c1.29-3.14,3.6-5.37,6.6-6.74,3.47-1.59,6.98-1.35,10.04,1.01,3.29,2.54,4.81,6.04,4.21,10.19-.27,1.87-.75,3.8-2.11,5.48-.54-.18-1.18-.28-1.71-.59-5.03-2.91-10.33-5.17-15.92-6.79-1.44-.42-1.69-1.16-1.12-2.55ZM696.28,622.42c.9,1.33,1.79,2.67,2.65,4.03.37.58-.05,1.33-.73,1.34-2.74.04-5.48.07-8.22.08-5.32.01-10.63,0-16.77,0,4.47-7.15,8.54-13.66,12.82-20.5,3.56,5.23,6.91,10.14,10.25,15.05ZM677.65,605.56c1.91.06,3.7.15,5.27.25-.84,3.32-7.94,15.04-13,21.32-4.76-7.02-9.28-13.68-13.78-20.35-.15-.22-.07-.58-.1-.88.74-.12,1.94-.22,3.44-.3,1-.05,2.13-.09,3.36-.12.41-.01.84-.02,1.27-.03,1.15-.02,2.36-.03,3.61-.04.01,0,.02,0,.03,0,3.26-.01,6.74.03,9.92.14ZM667.19,631.21c-4.52,17.53-9.25,34.96-13.97,52.68-1.05-.87-1.29-1.88-1.58-2.88-4.43-15.37-8.86-30.74-13.28-46.11-.35-1.23-.9-2.44-.48-3.76,4.85-.56,25.37-.55,29.31.07ZM639.45,626.66c4.02-5.66,8.02-11.35,12.03-17.02.45-.64.98-1.23,1.49-1.86,2.69,2.9,11.92,16.44,13.65,20.22h-27.09c-.28-.48-.42-.85-.08-1.33ZM644.08,562.08c1.41-3.64,4.08-5.8,7.99-6.09,4.15-.31,7.68,1.04,9.97,4.69,1.39,2.21,2.2,4.67,2.12,7.69,0-.02.01.3,0,.62-.1,2.31-.61,2.86-3,2.46-5.45-.92-10.92-1.06-16.42-.8-1.71.08-1.9-.25-1.96-1.96-.09-2.31.48-4.49,1.3-6.61ZM650.69,605.38c-2.01,4.21-4.62,7.42-6.9,10.81-2.24,3.34-4.75,6.5-7.19,9.81-.55-.26-1.1-.33-1.33-.65-4.4-5.97-8.77-11.95-13.14-17.95-.45-.62-1.12-1.21-.58-2.49,9.46.15,19.05.3,29.13.46ZM631.52,628.07c-6.47.09-12.93.15-19.4.21-2.42.02-4.85.04-7.27,0-1.04-.01-1.48-.75-.93-1.57,4.38-6.59,8.79-13.17,13.21-19.73.15-.23.54-.3.99-.53,4.85,6.62,9.72,13.26,14.56,19.91.74,1.02.29,1.69-1.15,1.71ZM623.96,561.33c1.94-.53,3.8-.42,5.72.16,4.71,1.42,7.84,4.6,9.34,9.8-7.75,1.57-15.24,3.94-22.19,7.76-3.66-7.24-.13-15.74,7.13-17.72ZM596.77,578.61c4.72-3.35,11.08-2.85,15.16,1.04,1.1,1.05,1.04,1.65-.29,2.67-1.41,1.08-2.87,2.1-4.26,3.21-3.17,2.53-6.03,5.37-8.67,8.45-.71.83-1.2,1.91-2.47,2.35-2.06-2.13-3.28-4.77-3.8-7.63-.76-4.23.89-7.65,4.33-10.1ZM576.71,614.2c-2.3-4.15-.67-10.21,3.38-12.96,4.22-2.86,8.72-3.13,13.63-1.16-1.78,3.52-3.68,6.88-5.21,10.4-1.46,3.37-2.54,6.91-3.88,10.65-3.57-1.41-6.17-3.76-7.93-6.93ZM571.09,644.95c-1.98-2.38-2.62-5.14-2.13-8.15,1.03-6.28,7.15-11.06,13.58-10.68.81.05,1.1.55,1.06,1.27-.16,2.73-.34,5.46-.45,7.24,0,5.48.11,9.98,1.06,14.42.21.99-.33,1.57-1.28,1.52-4.73-.22-8.76-1.95-11.83-5.63ZM579.66,673.17c-4.87-6.05-2.1-12.75,3.42-16.12,2.13-1.3,2.53-1.1,3.44,1.2,1.2,3,2.34,6.04,3.73,8.95,1.32,2.76,2.94,5.39,4.55,8.29-5.88,3.13-11.49,2.22-15.15-2.32ZM601.27,698.14c-4.73-.62-8.07-4.12-7.89-8.86.14-3.72,1.18-7.27,3.84-10.32,2.56,2.72,4.88,5.38,7.4,7.83,2.42,2.35,5.06,4.48,7.66,6.75-2.79,3.95-6.51,5.2-11.02,4.61ZM624.84,713.09c-4.99.94-9.52-2.16-10.27-7.19-.49-3.28.1-6.43,1.61-9.77,2.04,1.04,4,2.08,6.01,3.03,2.05.97,4.11,1.91,6.21,2.75,2.1.84,4.25,1.53,6.85,2.45-2.51,4.67-5.51,7.81-10.4,8.73ZM603.19,631.95c.26-.7.56-.99,1.12-.99,9.24-.02,18.47-.03,27.71-.07,2.47-.01,2.6.55,3.21,2.68,4.07,14.32,8.24,28.61,12.38,42.91.59,2.02,1.2,4.03,1.77,6.06.16.58.36,1.2-.21,1.82-.37-.25-.84-.43-1.13-.77-14.99-17.23-29.96-34.48-44.86-51.64ZM662.26,708.17c-.34,5.35-5.37,12.09-12.77,11.34-2.93-.3-5.27-1.7-7.13-3.77-2.57-2.86-3.62-6.33-3.5-10.03,1.28-.75,2.16-.03,3.08,0,.81.02,1.62.12,2.42.25,5.32.85,10.64.98,15.99.33,1.58-.19,2.01.32,1.91,1.89ZM690.33,704.66c-.88,6.36-6.37,10.33-12.94,9.53-4.81-.59-8.26-3.43-10.73-7.5-.43-.7,0-1.23.67-1.46.61-.2,1.26-.25,1.89-.4,5.67-1.37,11.09-3.4,16.27-6.1,1.12-.58,2.1-1.54,3.63-1.49,1.3,2.3,1.57,4.85,1.22,7.42ZM659.07,681.96c-.68.85-1.18,1.93-3.17,2.53,4.7-18.17,9.43-35.78,14.12-53.19,1.44-.84,2.78-.62,4.04-.63,7.93-.11,15.86-.16,23.79-.19.41,0,.92.24,1.19.54.38.42.04.91-.23,1.3-.37.53-.8,1.02-1.2,1.52-12.84,16.04-25.68,32.09-38.55,48.12ZM713.03,692.78c-1.5,6.07-8.05,9.11-13.64,6.3-2.32-1.16-4.28-2.77-5.97-5.29,5.93-4.47,10.75-9.4,15.02-15.21,4.31,4.13,5.96,8.68,4.59,14.2ZM729.09,665.85c1.32,6.56-2.9,12.62-10.34,12.69-2.82.03-4.29-.46-8.15-2.5.06-.31.03-.68.18-.94,3.29-5.77,5.92-11.82,7.66-18.25.42-1.57,1.06-1.82,2.43-1.18,4.38,2.07,7.28,5.5,8.22,10.18ZM735.75,635.63c1.08,2.54,1.86,5.19,1.02,7.99-1.2,3.98-3.65,6.72-7.78,7.85-1.88.52-3.77.86-5.5.79-.38,0-.54,0-.7,0-3.23-.03-3.4-.1-2.93-3.27.88-5.96.84-11.89-.08-17.82-.1-.64-.16-1.28-.19-1.93-.06-1.27.34-1.72,1.61-1.88,5.82-.75,12.25,2.86,14.55,8.28ZM717.41,599.77c2.46.19,4.76,1.01,6.71,2.56,4.08,3.24,5.35,10.03,2.7,14.59-1.67,2.88-4.09,4.99-7.12,6.4-.75.35-1.19,0-1.58-.56-.09-.13-.13-.29-.17-.45-1.88-7.11-4.98-13.67-8.94-19.84-.25-.39-.33-.9-.53-1.46,2.81-1.85,5.9-1.46,8.93-1.23ZM703.16,577.14c3.44-.07,6.5,1.97,8.34,5.86,1.81,3.83,1.72,7.54-1.05,10.94-.82,1-1.75,1.92-2.68,2.81-1.43,1.37-1.82,1.38-3.09-.16-3.73-4.53-7.98-8.51-12.64-12.07-1.74-1.33-1.72-1.87.04-3.28,2.97-2.38,6.21-4.1,11.08-4.1Z"/>
  <path class="cls-3" d="M716.2,686.37c-.29-1.54-.77-3.06-1.11-4.6.1-.05.21-.14.31-.18-.1.04-.21.12-.31.18.34,1.53.82,3.06,1.11,4.6Z"/>
  <path class="cls-3" d="M577.92,727.73c-8.74-13.44-17.46-26.89-26.22-40.32-3.71-5.69-7.48-11.34-11.68-17.7-1.92,2.78-3.53,5-5.03,7.29-3.81,5.83-7.56,11.69-11.35,17.53-7.33,11.27-14.69,22.51-22.01,33.79-2.39,3.68-4.57,7.5-5.4,11.87-1.85,9.74.23,18.4,7.72,25.25,6.85,6.27,16.18,7.23,24.37,2.83,4.27-2.29,7.42-5.67,9.82-9.84.58-1.01.7-2.42,2.18-2.94,1.62,3.5,3.54,6.68,6.34,9.23,10.93,9.98,25.19,7.33,32.72-3.02,4.4-6.05,5.84-12.89,4.56-20.28-.87-5.06-3.27-9.45-6.02-13.68Z"/>
  <path class="cls-3" d="M378.99,768.1s0,0,0,0c0,.04.02.06.02.09h0s-.02-.06-.02-.09c-.03,0-.05.01-.08.02,0,0,0,0,0,0,.03,0,.05-.01.08-.02Z"/>
  <path class="cls-3" d="M378.92,768.19s.05-.06.07-.08l-.07.08Z"/>
  <path class="cls-1" d="M570.47,546.86c-4.23-1.98-8.46-3.59-11.88-6.73-8.9-8.18-14.55-18.16-16.9-30.01-.25-1.25-.58-2.5-.98-3.71-.06-.2-.7-.24-1.07-.28-.18-.02-.51.11-.56.25-.28.81-.58,1.62-.72,2.46-1.72,10.54-6.24,19.7-13.38,27.62-3.69,4.09-7.93,7.33-13.08,9.38-.8.32-2.2-.08-2.29,1.46,1.88,1.4,4.11,1.37,6.21,1.76,5.37.99,9.55,3.88,13.05,7.94,1.86,2.16,3.12,4.65,4.26,7.24,2.55,5.8,3.78,11.95,4.93,18.13.27,1.47.26,3.08,2.05,3.98,1.46-1.4,1.7-3.29,1.99-5.17.84-5.36,2.11-10.62,4.09-15.67,3.57-9.09,9.63-15.27,19.71-16.75,1.59-.23,3.32-.34,4.57-1.9Z"/>
  <path class="cls-6" d="M542.5,641.3c-.84-2.07-1.47-4.23-2.31-6.71-1.28,1.4-1.39,2.72-1.69,3.94-.82,3.28-2.81,5.76-5.32,7.88-1.25,1.05-2.68,1.76-4.26,2.2-.45.13-.88.5-.79,1.06.09.54.57.65,1.04.72,4.73.69,7.36,3.64,8.59,8.06.39,1.4.68,2.82,1.15,4.19.33.97.2,2.18,1.3,2.83.71-2.51,1.38-4.99,2.11-7.46,1.19-4.03,3.69-6.73,7.95-7.54.6-.11,1.26-.08,1.76-1.02-1.67-1.36-4.03-1.71-5.59-3.29-1.47-1.49-3.13-2.86-3.93-4.85Z"/>
  <path class="cls-1" d="M540.12,938.8c-2.68,10.53-9.26,14.76-18.87,15.33.76,1.76,2.04,1.8,3.02,2.23,2.91,1.29,5.13,3.27,6.9,5.9,1.56,2.31,2.73,4.76,3.69,7.35,2.16,5.81,3.21,11.86,3.79,18,.17,1.77.2,3.56.39,5.33.06.58.06,1.45.87,1.56.93.12.73-.79.85-1.3.14-.62.08-1.29.17-1.93.51-4.01.98-8.03,1.56-12.03.65-4.51,2.07-8.82,3.96-12.95,2.15-4.7,5.22-8.56,10.31-10.38.71-.26,1.59-.42,1.8-1.69-4.08-.61-8.19-1.06-11.65-3.76-3.55-2.77-5.98-6.11-6.79-11.64Z"/>
  <path class="cls-4" d="M445.71,631.21c-1.17,2.91-13.72,45.41-15.06,51.06-.14.61-.11,1.25-.16,1.87,1.12.11,1.52-.69,2.03-1.24,15.24-16.68,41.87-47.88,43.98-51.5-3.85-.59-25.7-.73-30.79-.19Z"/>
  <path class="cls-4" d="M423.51,684.61c.36-.41.36-.87.27-1.32-.03-.15-.07-.3-.11-.45-.6-2.35-1.25-4.68-1.87-7.02-3.74-14.05-7.48-28.1-11.24-42.15-.76-2.82-.81-2.91-3.44-2.95-8.41-.14-16.82-.19-25.23-.27-.48,0-.93.08-1.21.6-.25.73.36,1.16.73,1.63,1.82,2.38,3.89,5.05,6.12,7.89.49.63,1,1.27,1.51,1.92.51.65,1.02,1.3,1.54,1.96.78.99,1.57,1.99,2.38,3,12.83,16.18,27.91,34.59,30.56,37.16Z"/>
  <path class="cls-2" d="M423.51,684.61s0,0,0,0c.36-.41.36-.87.27-1.32.09.45.09.91-.27,1.32Z"/>
  <path class="cls-2" d="M389.03,642.49c-.51-.65-1.01-1.29-1.51-1.92.49.63,1,1.27,1.51,1.92Z"/>
  <path class="cls-6" d="M413.08,632.5c4.37,16.56,8.76,33.11,13.17,49.66.16.6.57,1.13.91,1.8,2.83-7.78,14.59-49.21,14.98-52.74-3.94-.59-24.85-.67-29-.1-.03.45-.17.95-.06,1.37Z"/>
  <path class="cls-4" d="M429.3,605.52c4.47,7.94,11.61,17.74,14.87,20.48,2.1-2.88,4.19-5.75,6.29-8.61,2.4-3.26,4.83-6.5,7.21-9.79.45-.62,1.22-1.24.88-2.11-.39-1-1.38-.59-2.11-.58-7.13.09-14.26.21-21.39.35-1.77.03-3.53.16-5.74.27Z"/>
  <path class="cls-6" d="M455.35,628.2c.36,0,.73.02,1.09.02,2.2.04,4.47.07,6.66.07,5.83,0,11.09-.13,12.95-.4.02-.23.12-.51.11-.72,0-.07-.02-.13-.05-.18-4.51-6.89-9.04-13.76-13.61-20.69-2.75,2.7-13.27,17.03-15.82,21.55,1.04.07,2.23.14,3.51.19.64.03,1.3.05,1.99.08,1.02.03,2.09.06,3.18.09Z"/>
  <path class="cls-2" d="M450.19,628.03c.64.03,1.3.05,1.99.08-.68-.02-1.35-.05-1.99-.08Z"/>
  <path class="cls-2" d="M463.11,628.29c-2.19,0-4.46-.03-6.66-.07,2.2.04,4.47.07,6.66.07Z"/>
  <path class="cls-2" d="M455.35,628.2c-1.09-.02-2.15-.05-3.18-.09,1.02.03,2.09.06,3.18.09Z"/>
  <path class="cls-4" d="M396.25,605.88c2.41,3.98,4.39,7.47,6.57,10.83,2.24,3.44,4.17,7.11,7.19,10.48,4.64-7.42,9.93-13.89,14.22-21.2-3.97-.71-18.78-.76-27.99-.11Z"/>
  <path class="cls-6" d="M441.15,627.81c-4.76-6.79-9.19-13.1-13.63-19.42-.09-.13-.22-.26-.36-.32-.13-.05-.3-.01-.44-.01-3.39,3.79-11.73,16.2-13.07,19.44,3.91.58,20.52.79,27.49.31Z"/>
  <path class="cls-6" d="M404.54,627.91c.59,0,1.32.16,1.62-.93-3.92-6.28-7.93-12.7-12.27-19.65-4.45,6.56-8.53,12.57-12.59,18.59-.65.97-.52,1.96,1.39,1.95,7.28-.05,14.57.03,21.85.04Z"/>
  <g>
    <path class="cls-1" d="M493.11,658.96c-1.64,4.94-3.9,9.58-6.61,14.02-.34.55-.71,1.09-1,1.66-.35.69-.08,1.3.55,1.61,3.07,1.5,6.24,1.6,9.42.42,4.57-1.7,7.6-6.33,7.27-10.97-.3-4.23-3.76-8.08-8.57-9.4-.35.87-.75,1.75-1.06,2.66Z"/>
    <g>
      <path class="cls-1" d="M360.45,651.9c-1.42-8.23-1.16-16.09.07-23.89-4.71-1.2-8.23-.5-12.05,2.27-3.51,2.54-5.24,6.08-5.51,10.32-.31,4.92,2.67,9.16,7.4,10.7,3.11,1.02,6.28,1.26,10.09.6Z"/>
      <path class="cls-1" d="M361.02,623.6c.93-.8,1.11-1.93,1.43-3,1.74-5.76,4.2-11.2,7.35-16.33.42-.69.87-1.36,1.26-2.07.46-.85.17-1.6-.75-1.88-3.51-1.07-6.98-.82-10.52,0-7.75,1.8-10.43,12.67-5.68,18.13,1.95,2.25,4.11,4.11,6.92,5.16Z"/>
      <path class="cls-1" d="M496.16,626.36c.88,7.38,1.07,14.44-.24,21.49-.09.47-.1.96-.14,1.45-.05.74.24,1.28,1.04,1.26,5.33-.15,9.72-2.18,12.75-6.67,1.49-2.22,1.94-4.73,1.32-7.4-1.54-6.7-6.86-10.49-14.72-10.12Z"/>
      <path class="cls-1" d="M364.76,666.27c-1.34-3.27-2.27-6.72-3.43-10.07-.34-.99-1.2-.97-1.99-.64-3.44,1.43-5.9,3.95-7.47,7.26-1.96,4.12-1.82,8.3,1,11.9,2.86,3.64,6.95,4.53,11.38,3.48,1.71-.4,3.33-1.17,5.4-1.92-1.8-3.65-3.54-6.75-4.88-10.01Z"/>
      <path class="cls-1" d="M373.81,598.25c4.34-5.17,8.62-9.58,13.55-13.31,2.51-1.89,2.43-2.23-.14-4.22-1.69-1.31-3.55-2.29-5.54-2.97-5-1.72-9.87-.2-12.45,3.85-2.41,3.78-3.26,8.9,1.1,13.34,1.01,1.03,2.1,2,3.48,3.31Z"/>
      <path class="cls-1" d="M418.5,571.5c3.69-.43,7.35-1.13,11.23-.93.83,0,1.8-.03,2.77,0,4.79.19,5.54.89,4.24-5.4-.29-1.41-.81-2.79-1.38-4.11-1.01-2.37-2.9-3.81-5.3-4.64-4.27-1.49-10.38.49-12.52,4.83-1.26,2.54-1.85,5.13-1.68,7.94.13,2.16.52,2.56,2.64,2.31Z"/>
      <path class="cls-1" d="M464.41,570.88c-1.05-5.98-5.92-10.12-11.42-9.9-5.61.23-10.49,4.39-12.02,10.36,7.81,1.46,15.27,4.01,22.27,7.78,1.65-2.76,1.64-5.51,1.17-8.24Z"/>
      <path class="cls-1" d="M373.7,681.4c-.43-.48-.79-1.02-1.21-1.52-.83-.96-1.44-.96-2.33.03-3.26,3.63-4.33,7.84-3.4,12.61,1.29,6.66,9.28,9.55,14.51,6.21,1.91-1.22,3.71-2.56,5.11-4.84-2.45-2.16-4.71-4-6.78-6.04-2.07-2.04-3.94-4.29-5.89-6.45Z"/>
      <path class="cls-1" d="M412.06,705.07c-6.85-1.38-13.25-3.94-19.35-7.31-1.59-.88-2.31-.54-2.68,1.2-.23,1.1-.34,2.23-.42,2.81-.12,3,.14,4.47.98,6.18,2.2,4.5,7.08,7.05,12.02,6.26,4.61-.73,7.93-3.36,10.46-7.13.66-.98.33-1.75-1-2.01Z"/>
      <path class="cls-1" d="M439.43,705.4c-6.37,1.07-12.77,1.82-19.21.91-2.67-.37-2.67.75-2.4,2.71.42,2.99,1.82,5.5,4.01,7.51,3.08,2.83,6.74,3.8,10.73,2.55,5.53-1.73,8.76-7.25,8.22-13.57-.44-.44-.9-.18-1.35-.11Z"/>
      <path class="cls-1" d="M495.11,621.07c3.02-.84,4.93-2.81,6.8-4.85,4.51-4.92,1.7-12.92-2.47-15.3-4.26-2.42-8.54-2.75-13.38-.75,3.98,6.6,7.06,13.49,9.06,20.9Z"/>
      <path class="cls-1" d="M410.65,573.3c1.31-.36,1.6-1.02,1.18-2.11-1.21-3.17-3.4-5.47-6.39-6.97-5.44-2.73-11.05-.13-13.31,4.12-2.29,4.32-1.65,8.34.88,12.62,5.9-3.27,11.54-6,17.64-7.66Z"/>
      <path class="cls-1" d="M468.49,582.47c5.2,3.66,9.84,7.91,13.83,12.86.3.37.71.64,1.48,1.31,1.61-2.48,2.93-4.65,3.51-7.24.9-4.03-.2-7.42-3.26-10.07-4.4-3.81-11.35-3.94-15.61-.12-1.65,1.48-1.73,2.02.05,3.27Z"/>
      <path class="cls-1" d="M462.23,696.79c-4.92,2.85-10.09,5.1-15.5,6.83-.31.1-.64.16-.92.3-.71.35-.85.99-.48,1.59,1.96,3.24,4.36,5.92,8.16,7.2,6.41,2.16,12.22-2.11,12.11-9.18.07-1.97-.64-3.97-1.19-5.99-.33-1.22-.97-1.44-2.17-.74Z"/>
      <path class="cls-1" d="M467.48,693.41c3.27,4.37,7.27,5.46,11.94,4.62,3.53-.63,5.78-2.76,6.72-6.2,1.12-4.09-.44-9.31-3.86-12.78-4.15,5.44-9.1,10.07-14.8,14.35Z"/>
    </g>
  </g>
  <path class="cls-4" d="M649.18,684.35c.57-.62.37-1.24.21-1.82-.57-2.02-1.18-4.04-1.77-6.06-4.14-14.3-8.31-28.59-12.38-42.91-.61-2.14-.74-2.7-3.21-2.68-9.24.04-18.47.05-27.71.07-.56,0-.86.29-1.12.99,14.9,17.16,29.87,34.4,44.86,51.64.29.34.76.52,1.13.77Z"/>
  <path class="cls-4" d="M698.81,632.31c.27-.39.61-.88.23-1.3-.28-.3-.79-.54-1.19-.54-7.93.03-15.86.08-23.79.19-1.27.02-2.6-.2-4.04.63-4.69,17.41-9.42,35.02-14.12,53.19,1.99-.61,2.49-1.69,3.17-2.53,12.86-16.03,25.7-32.08,38.55-48.12.4-.5.83-1,1.2-1.52Z"/>
  <path class="cls-6" d="M638.36,634.9c4.43,15.37,8.86,30.74,13.28,46.11.29,1,.53,2,1.58,2.88,4.72-17.71,9.45-35.15,13.97-52.68-3.95-.62-24.46-.63-29.31-.07-.41,1.33.13,2.54.48,3.76Z"/>
  <path class="cls-4" d="M622.14,607.41c4.36,5.99,8.73,11.98,13.14,17.95.23.31.78.39,1.33.65,2.44-3.31,4.94-6.47,7.19-9.81,2.28-3.4,4.9-6.61,6.9-10.81-10.08-.16-19.67-.31-29.13-.46-.55,1.28.12,1.86.58,2.49Z"/>
  <path class="cls-6" d="M617.12,606.98c-4.42,6.57-8.82,13.14-13.21,19.73-.55.82-.1,1.56.93,1.57,2.42.03,4.85.01,7.27,0,6.47-.06,12.93-.12,19.4-.21,1.43-.02,1.89-.69,1.15-1.71-4.84-6.66-9.71-13.29-14.56-19.91-.44.23-.83.3-.99.53Z"/>
  <path class="cls-4" d="M664.09,605.46c-.43,0-.86.02-1.27.03-1.23.03-2.36.07-3.36.12-1.5.08-2.69.18-3.44.3.03.3-.04.66.1.88,4.5,6.67,9.02,13.33,13.78,20.35,5.07-6.28,12.16-18,13-21.32-1.57-.11-3.36-.19-5.27-.25-3.17-.1-6.66-.15-9.92-.14-.01,0-.02,0-.03,0-1.25,0-2.46.02-3.61.04Z"/>
  <path class="cls-2" d="M659.46,605.61c1-.05,2.13-.09,3.36-.12-1.23.03-2.36.07-3.36.12Z"/>
  <path class="cls-2" d="M664.09,605.46c1.15-.02,2.36-.03,3.61-.04-1.25,0-2.46.02-3.61.04Z"/>
  <path class="cls-2" d="M677.65,605.56c-3.17-.1-6.66-.15-9.92-.14,3.26-.01,6.74.03,9.92.14Z"/>
  <path class="cls-6" d="M666.62,627.99c-1.73-3.77-10.96-17.32-13.65-20.22-.51.63-1.03,1.22-1.49,1.86-4.01,5.67-8.01,11.35-12.03,17.02-.34.48-.2.85.08,1.33h27.09Z"/>
  <path class="cls-6" d="M673.21,627.87c6.14,0,11.46,0,16.77,0,2.74,0,5.48-.04,8.22-.08.69-.01,1.1-.76.73-1.34-.86-1.36-1.75-2.7-2.65-4.03-3.34-4.92-6.69-9.82-10.25-15.05-4.28,6.84-8.35,13.35-12.82,20.5Z"/>
  <g>
    <path class="cls-1" d="M721.2,627.36c-1.27.16-1.67.61-1.61,1.88.03.64.09,1.29.19,1.93.92,5.94.96,11.87.08,17.82-.47,3.18-.3,3.24,2.93,3.27.16,0,.32,0,.7,0,1.73.07,3.62-.27,5.5-.79,4.12-1.13,6.58-3.87,7.78-7.85.84-2.8.06-5.45-1.02-7.99-2.3-5.42-8.73-9.03-14.55-8.28Z"/>
    <path class="cls-1" d="M709.01,602.46c3.96,6.18,7.07,12.73,8.94,19.84.04.15.09.32.17.45.39.56.83.92,1.58.56,3.03-1.41,5.45-3.51,7.12-6.4,2.65-4.56,1.38-11.35-2.7-14.59-1.96-1.55-4.25-2.37-6.71-2.56-3.03-.23-6.12-.62-8.93,1.23.2.56.27,1.07.53,1.46Z"/>
    <path class="cls-1" d="M584.2,649.06c-.95-4.44-1.06-8.95-1.06-14.42.11-1.77.29-4.5.45-7.24.04-.72-.25-1.22-1.06-1.27-6.43-.38-12.54,4.39-13.58,10.68-.49,3.01.14,5.77,2.13,8.15,3.08,3.69,7.1,5.41,11.83,5.63.96.04,1.49-.53,1.28-1.52Z"/>
    <path class="cls-1" d="M720.87,655.67c-1.37-.65-2.01-.39-2.43,1.18-1.74,6.43-4.36,12.48-7.66,18.25-.15.26-.13.62-.18.94,3.87,2.05,5.34,2.53,8.15,2.5,7.44-.07,11.66-6.13,10.34-12.69-.94-4.68-3.84-8.11-8.22-10.18Z"/>
    <path class="cls-1" d="M692.04,584.53c4.66,3.56,8.9,7.54,12.64,12.07,1.27,1.54,1.66,1.53,3.09.16.93-.9,1.87-1.81,2.68-2.81,2.77-3.4,2.86-7.11,1.05-10.94-1.84-3.88-4.9-5.93-8.34-5.86-4.87,0-8.11,1.72-11.08,4.1-1.76,1.41-1.78,1.95-.04,3.28Z"/>
    <path class="cls-1" d="M639.02,571.29c-1.5-5.21-4.63-8.39-9.34-9.8-1.91-.58-3.78-.69-5.72-.16-7.26,1.99-10.78,10.49-7.13,17.72,6.94-3.82,14.43-6.19,22.19-7.76Z"/>
    <path class="cls-1" d="M644.73,570.66c5.5-.26,10.97-.13,16.42.8,2.39.4,2.9-.14,3-2.46.01-.32,0-.65,0-.62.08-3.02-.73-5.48-2.12-7.69-2.29-3.65-5.82-5-9.97-4.69-3.91.29-6.58,2.45-7.99,6.09-.82,2.11-1.39,4.29-1.3,6.61.06,1.71.25,2.05,1.96,1.96Z"/>
    <path class="cls-1" d="M685.49,698.73c-5.17,2.7-10.6,4.73-16.27,6.1-.63.15-1.28.2-1.89.4-.68.23-1.1.76-.67,1.46,2.47,4.07,5.92,6.91,10.73,7.5,6.57.8,12.06-3.17,12.94-9.53.35-2.57.08-5.12-1.22-7.42-1.53-.05-2.5.91-3.63,1.49Z"/>
    <path class="cls-1" d="M693.42,693.79c1.7,2.52,3.65,4.13,5.97,5.29,5.59,2.8,12.14-.23,13.64-6.3,1.36-5.52-.29-10.07-4.59-14.2-4.27,5.82-9.09,10.74-15.02,15.21Z"/>
    <path class="cls-1" d="M669.39,573.33c5.58,1.62,10.89,3.88,15.92,6.79.52.3,1.16.41,1.71.59,1.36-1.68,1.83-3.61,2.11-5.48.6-4.15-.92-7.65-4.21-10.19-3.06-2.36-6.58-2.6-10.04-1.01-3,1.38-5.31,3.6-6.6,6.74-.57,1.39-.32,2.13,1.12,2.55Z"/>
    <path class="cls-1" d="M588.52,610.49c1.53-3.52,3.43-6.89,5.21-10.4-4.91-1.97-9.41-1.7-13.63,1.16-4.06,2.75-5.69,8.81-3.38,12.96,1.76,3.17,4.36,5.52,7.93,6.93,1.34-3.73,2.42-7.27,3.88-10.65Z"/>
    <path class="cls-1" d="M660.35,706.28c-5.35.65-10.68.53-15.99-.33-.8-.13-1.61-.22-2.42-.25-.92-.03-1.8-.75-3.08,0-.12,3.69.93,7.16,3.5,10.03,1.86,2.07,4.2,3.48,7.13,3.77,7.4.76,12.43-5.98,12.77-11.34.1-1.57-.33-2.08-1.91-1.89Z"/>
    <path class="cls-1" d="M596.24,596.34c1.27-.44,1.76-1.52,2.47-2.35,2.64-3.08,5.5-5.92,8.67-8.45,1.39-1.11,2.85-2.13,4.26-3.21,1.33-1.02,1.39-1.63.29-2.67-4.08-3.9-10.44-4.4-15.16-1.04-3.45,2.45-5.09,5.87-4.33,10.1.52,2.87,1.74,5.51,3.8,7.63Z"/>
    <path class="cls-1" d="M590.26,667.2c-1.39-2.91-2.54-5.95-3.73-8.95-.92-2.3-1.32-2.5-3.44-1.2-5.52,3.37-8.29,10.07-3.42,16.12,3.65,4.54,9.27,5.45,15.15,2.32-1.61-2.9-3.22-5.52-4.55-8.29Z"/>
    <path class="cls-1" d="M622.18,699.16c-2.01-.95-3.97-2-6.01-3.03-1.51,3.34-2.1,6.49-1.61,9.77.76,5.03,5.28,8.13,10.27,7.19,4.89-.92,7.89-4.06,10.4-8.73-2.6-.92-4.75-1.61-6.85-2.45-2.1-.84-4.17-1.78-6.21-2.75Z"/>
    <path class="cls-1" d="M597.23,678.95c-2.66,3.06-3.7,6.6-3.84,10.32-.18,4.74,3.15,8.24,7.89,8.86,4.51.59,8.23-.65,11.02-4.61-2.6-2.27-5.23-4.4-7.66-6.75-2.53-2.45-4.85-5.11-7.4-7.83Z"/>
  </g>
  <path class="cls-7" d="M647.81,524.89s0,0,0,0c.16.24.16.5.1.76.07-.26.07-.52-.1-.76Z"/>
  <path class="cls-2" d="M378.99,768.1s-.05.01-.08.02c0,.02,0,.05,0,.07l.07-.08s0,0,0,0Z"/>
  <path class="cls-3" d="M647.66,524.72s-.08-.09-.12-.13h0s.08.09.12.13l-.08.13c0-.08-.02-.17-.04-.26h0c.02.09.03.18.04.26,0,0,.08-.13.08-.13.06.06.11.11.15.17,0,0,0,0,0,0-.04-.06-.09-.11-.15-.17Z"/>
  <path class="cls-3" d="M647.52,524.48s.01.07.02.11h0s-.01-.07-.02-.11Z"/>
  <path class="cls-3" d="M647.66,524.72s-.08-.09-.12-.13c.02.09.03.18.04.26l.08-.13Z"/>
  <polygon class="cls-3" points="647.54 524.58 647.54 524.58 647.54 524.59 647.54 524.59 647.54 524.58"/>
  <path class="cls-3" d="M647.58,524.85c.08.02.15.04.22.04-.04-.06-.09-.11-.15-.17,0,0-.08.13-.08.13Z"/>
  <path class="cls-6" d="M495.67,701.92c3.52,6.56,3.23,14.39,1.11,21.38-6.68,21.1-32.15,32.97-52.74,25.77,0,0-.15-.97-.15-.97l4.6-.96,4.55-1.16c17.81-4.5,35.32-16.32,40.15-34.9.85-2.97,1.44-6.07,1.5-9.13l.98-.04h0Z"/>
  <path class="cls-6" d="M478.91,941.38c-2.28.05-4.14,2.09-4.06,4.45.07,2.14,1.82,4.03,3.87,4.18,2.22.17,4.25-1.85,4.27-4.23.02-2.47-1.82-4.45-4.08-4.4Z"/>
  <g>
    <path class="cls-6" d="M506.76,1008.81c8.66-4.81,14.91-14.61,13.72-24.35-.71-6.63-4.89-12.9-10.74-15.97,0,0,.93.48.93.48-4.54-1.75-9.88-1.56-13.79,1.28-2.71,2.17-4.87,5.63-5.23,9.17-.19,2.26-.26,4.33.5,6.39.85,2.31,3.48,3.82,5.92,4.24,4.13.91,7.87-2.22,9.38-6.04.32-.77.6-1.6.81-2.44l.98-.08c.24,3.66-.77,7.46-3.3,10.19-5.16,5.75-15.27,4.46-19.64-1.62-4.16-6.12-3.86-14.7-.39-20.98,5.33-10.34,18.34-13.6,28.58-8.91,14.87,8.55,18.26,29.36,6.22,41.79-3.7,3.88-8.54,6.61-13.73,7.79l-.23-.95h0Z"/>
    <path class="cls-6" d="M503.69,960.23c-4.78,2.32-11.39,4.53-16.36,6.4-4.28,1.54-8.08,2.99-12.79,3.68-16.67,2.33-31.17-15.26-19.78-29.92,2.31-2.82,5.21-4.84,8.5-5.81l.72.66c-1.82,2.16-3.35,4.56-4.33,7.16-3.58,8.7.73,16.52,9.96,18.17,2.64.45,5.44,0,8.25-.49,5.65-1.09,11.51-1.81,17.29-1.62,2.9.1,5.79.38,8.66.79l-.12.97h0Z"/>
  </g>
  <path class="cls-6" d="M382.91,780.93c5.26-1.87,11.36.64,14.76,4.93,3.34,4.4,4.33,10.16,2.67,15.33,0,0-.29.02-.29.02l-.47-3.62c-1.45-8.81-7.42-15.76-16.67-16.37,0,0,0-.29,0-.29h0Z"/>
  <path class="cls-6" d="M362.39,781.78c8.11-3.91,18.14-.12,23.51,6.76,5.25,6.72,6.8,16.33,3.1,24.15,0,0-.59.03-.59.03l-.3-2.76-.45-2.74c-1.68-10.92-8.77-21.13-19.87-23.9-1.76-.5-3.59-.86-5.4-.95v-.59h0Z"/>
  <path class="cls-6" d="M469.15,785.29c-12.05-17.15-31.17-27.34-52.03-24.56-4.21.48-8.66,1.28-12.91,1.7-27.23,3.44-59.28.82-71.85-27.79-8.37-20.16-5.06-42.41,1.77-62.08,0,0,1.03.14,1.03.14-1.06,8.72-1.7,17.5-1.47,26.25.33,12.93,2.32,26.49,9.99,37.19,13.48,18.64,39.11,18.03,59.85,16.72,3.88-.27,9.33-.78,13.19-.99,13.37-.72,27.12,3.25,37.45,11.9,6.84,5.73,12.41,12.93,15.95,21.15,0,0-.96.38-.96.38h0Z"/>
  <path class="cls-6" d="M583.87,701.92c-3.52,6.56-3.23,14.39-1.11,21.38,6.68,21.1,32.15,32.97,52.74,25.77,0,0,.15-.97.15-.97l-4.6-.96-4.55-1.16c-17.81-4.5-35.32-16.32-40.15-34.9-.85-2.97-1.44-6.07-1.5-9.13l-.98-.04h0Z"/>
  <path class="cls-6" d="M600.62,941.38c2.28.05,4.14,2.09,4.06,4.45-.07,2.14-1.82,4.03-3.87,4.18-2.22.17-4.25-1.85-4.27-4.23-.02-2.47,1.82-4.45,4.08-4.4Z"/>
  <g>
    <path class="cls-6" d="M572.77,1008.81c-8.66-4.81-14.91-14.61-13.72-24.35.71-6.63,4.89-12.9,10.74-15.97,0,0-.93.48-.93.48,4.54-1.75,9.88-1.56,13.79,1.28,2.71,2.17,4.87,5.63,5.23,9.17.19,2.26.26,4.33-.5,6.39-.85,2.31-3.48,3.82-5.92,4.24-4.13.91-7.87-2.22-9.38-6.04-.32-.77-.6-1.6-.81-2.44l-.98-.08c-.24,3.66.77,7.46,3.3,10.19,5.16,5.75,15.27,4.46,19.64-1.62,4.16-6.12,3.86-14.7.39-20.98-5.33-10.34-18.34-13.6-28.58-8.91-14.87,8.55-18.26,29.36-6.22,41.79,3.7,3.88,8.54,6.61,13.73,7.79l.23-.95h0Z"/>
    <path class="cls-6" d="M575.84,960.23c4.78,2.32,11.39,4.53,16.36,6.4,4.28,1.54,8.08,2.99,12.79,3.68,16.67,2.33,31.17-15.26,19.78-29.92-2.31-2.82-5.21-4.84-8.5-5.81l-.72.66c1.82,2.16,3.35,4.56,4.33,7.16,3.58,8.7-.73,16.52-9.96,18.17-2.64.45-5.44,0-8.25-.49-5.65-1.09-11.51-1.81-17.29-1.62-2.9.1-5.79.38-8.66.79l.12.97h0Z"/>
  </g>
  <path class="cls-6" d="M696.62,780.93c-5.26-1.87-11.36.64-14.76,4.93-3.34,4.4-4.33,10.16-2.67,15.33,0,0,.29.02.29.02l.47-3.62c1.45-8.81,7.42-15.76,16.67-16.37,0,0,0-.29,0-.29h0Z"/>
  <path class="cls-6" d="M717.15,781.78c-8.11-3.91-18.14-.12-23.51,6.76-5.25,6.72-6.8,16.33-3.1,24.15,0,0,.59.03.59.03l.3-2.76.45-2.74c1.68-10.92,8.77-21.13,19.87-23.9,1.76-.5,3.59-.86,5.4-.95v-.59h0Z"/>
  <path class="cls-6" d="M610.38,785.29c12.05-17.15,31.17-27.34,52.03-24.56,4.21.48,8.66,1.28,12.91,1.7,27.23,3.44,59.28.82,71.85-27.79,8.37-20.16,5.06-42.41-1.77-62.08,0,0-1.03.14-1.03.14,1.06,8.72,1.7,17.5,1.47,26.25-.33,12.93-2.32,26.49-9.99,37.19-13.48,18.64-39.11,18.03-59.85,16.72-3.88-.27-9.33-.78-13.19-.99-13.37-.72-27.12,3.25-37.45,11.9-6.84,5.73-12.41,12.93-15.95,21.15,0,0,.96.38.96.38h0Z"/>
  <path class="cls-3" d="M540,849.15c-4.48,7.47-8.96,14.93-13.44,22.4-10.05,16.47-43.45,29.04-85.12,31.86-21.95,1.48-122.85,8.29-150.76-47.69-6.33-12.7-7.16-25.13-7.03-32.95,28.87,62.22,80.14,7.47,80.14,7.47,32.85-38.83,67.2-47.29,67.2-47.29,86.61-18.92,109.01,42.81,109.01,42.81h0s22.4-61.72,109.01-42.81c0,0,34.35,8.46,67.2,47.29,0,0,51.27,54.75,80.14-7.47.13,7.82-.7,20.25-7.03,32.95-27.91,55.98-128.81,49.17-150.76,47.69-41.67-2.81-75.07-15.39-85.12-31.86-4.48-7.47-8.96-14.93-13.44-22.4h0Z"/>
  <g>
    <path class="cls-8" d="M409.72,928.13c13.68,6.21,23.79,18.49,31.02,31.39,2.05,3.7,4.11,8.66,5.85,12.55,6.41,14,18.91,24.7,33.22,30.04,7.32,2.6,14.63,4.12,21.71,2.63,1.01-.19,1.94-.56,2.87-.94,11.14-4.89,23.25-7.87,35.48-7.79,12.24-.07,24.33,2.91,35.48,7.8,7.8,3.05,16.39,1.14,24.59-1.69,14.32-5.34,26.82-16.05,33.23-30.05.8-1.69,2.52-5.79,3.29-7.5,2.41-5.12,5.3-10,8.56-14.62,6.51-9,14.79-17.26,24.99-21.83,0,0,.45.86.45.86-3.03,1.76-5.84,4.05-8.44,6.48-9.16,8.59-15.72,19.58-20.34,31.18-1.9,4.95-3.55,10.46-6.21,15.05-10.58,18.93-31.68,32.68-53.61,32.79-3.66-.1-7.45-.77-10.82-2.3-6.57-2.76-13.49-4.68-20.53-5.73-10.57-1.58-21.42-.68-31.69,2.23-3.43.97-6.81,2.1-10.09,3.5-3.37,1.53-7.16,2.2-10.82,2.3-14.74.09-28.85-6.45-39.88-15.9-8.29-7.14-14.67-16.5-18.1-26.9-.97-2.9-2.7-7.2-3.95-9.97-4.41-9.76-10.41-18.88-18.24-26.24-2.6-2.43-5.41-4.72-8.44-6.48,0,0,.45-.86.45-.86h0Z"/>
    <path class="cls-8" d="M314.19,581.44c5.35,17.6,7.55,36.19,7.79,54.57.15,9.15-.48,18.78-1.63,27.89-.62,4.61-1.3,9.37-2.27,13.93-.81,3.8-2.2,9.36-2.91,13.11-4.12,23.28-3.94,48.44,11.61,66.5,3.23,3.52,6.86,6.71,11.06,9.16,3.25,2.16,7.08,3.78,10.7,5.29,0,0-.55-.17-.55-.17,17.05,5.17,35.21,5.97,52.81,2.64,9.7-2.32,19.91-3.38,29.77-1.6,9.92,1.68,19.25,5.83,26.75,11.91l-.51.83c-4.03-2.44-8.33-4.42-12.8-5.87-11.2-3.64-23.35-3.81-34.76-1.01-11.4,3.37-23.27,5.64-35.22,5.51-43.26.43-70.62-24.06-70.6-68,.03-11.42,1.65-22.82,4.82-33.78.99-3.81,2.48-9.3,3.18-13.14,1.66-7.49,2.77-15.79,3.61-23.41,1.13-12.21,1.47-24.98.91-37.23-.4-9.02-1.2-18.06-2.71-26.95l.96-.19h0Z"/>
    <path class="cls-8" d="M343.32,773.9c4.61,2.83,9.34,5.23,13.83,8.34,4.5,3.26,8.85,7.33,12.17,12.02,6.48,9.09,11.53,19.2,15.04,29.79,7.12,21.28,8.19,44.39,4.26,66.42-.96,4.68-1.74,9.64-2.06,14.39-1.42,20.82,5.26,43.22,21.7,56.83,7.81,6.25,17.3,10.02,26.94,12.56,2.52.7,5.09,1.24,7.69,1.78l-.02,1.08c-5.3-.07-10.59-.6-15.8-1.61-5.21-1.01-10.34-2.52-15.22-4.7-19.81-8.8-32.08-29.53-35.01-50.46-1.59-10.52-.96-21.32,1.17-31.73,5.47-30.8,1.5-63.78-14.13-91.15-2.6-4.51-5.78-8.64-9.55-12.24-3.74-3.63-7.98-6.8-11.76-10.54l.75-.78h0Z"/>
    <path class="cls-8" d="M765.34,581.44c-5.35,17.6-7.55,36.19-7.79,54.57-.15,9.15.48,18.78,1.63,27.89.62,4.61,1.3,9.37,2.27,13.93.81,3.8,2.2,9.36,2.91,13.11,4.12,23.28,3.94,48.44-11.61,66.5-3.23,3.52-6.86,6.71-11.06,9.16-3.25,2.16-7.08,3.78-10.7,5.29,0,0,.55-.17.55-.17-17.05,5.17-35.21,5.97-52.81,2.64-9.7-2.32-19.91-3.38-29.77-1.6-9.92,1.68-19.25,5.83-26.75,11.91l.51.83c4.03-2.44,8.33-4.42,12.8-5.87,11.2-3.64,23.35-3.81,34.76-1.01,11.4,3.37,23.27,5.64,35.22,5.51,43.26.43,70.62-24.06,70.6-68-.03-11.42-1.65-22.82-4.82-33.78-.99-3.81-2.48-9.3-3.18-13.14-1.66-7.49-2.77-15.79-3.61-23.41-1.13-12.21-1.47-24.98-.91-37.23.4-9.02,1.2-18.06,2.71-26.95l-.96-.19h0Z"/>
    <path class="cls-8" d="M736.22,773.9c-4.61,2.83-9.34,5.23-13.83,8.34-4.5,3.26-8.85,7.33-12.17,12.02-6.48,9.09-11.53,19.2-15.04,29.79-7.12,21.28-8.19,44.39-4.26,66.42.96,4.68,1.74,9.64,2.06,14.39,1.42,20.82-5.26,43.22-21.7,56.83-7.81,6.25-17.3,10.02-26.94,12.56-2.52.7-5.09,1.24-7.69,1.78l.02,1.08c5.3-.07,10.59-.6,15.8-1.61,5.21-1.01,10.34-2.52,15.22-4.7,19.81-8.8,32.08-29.53,35.01-50.46,1.59-10.52.96-21.32-1.17-31.73-5.47-30.8-1.5-63.78,14.13-91.15,2.6-4.51,5.78-8.64,9.55-12.24,3.74-3.63,7.98-6.8,11.76-10.54l-.75-.78h0Z"/>
  </g>
</svg>