<svg width="172" height="30" viewBox="0 0 172 30" fill="none" xmlns="http://www.w3.org/2000/svg">
<path d="M22.7456 13.8072C22.6734 12.7229 22.3846 11.6386 21.8069 10.6988L16.8967 2.09639C16.5357 1.44578 16.2469 0.722892 16.1024 0L15.8858 0.361446C14.6583 2.45783 14.6583 5.13253 15.8858 7.22892L19.8573 14.0964C21.0848 16.1928 21.0848 18.8675 19.8573 20.9639L19.6406 21.3253C19.4962 20.6024 19.2074 19.8795 18.8463 19.2289L15.2359 12.9398L12.9253 8.89157C12.5642 8.24096 12.2754 7.51807 12.131 6.79518L11.9144 7.15663C10.6868 9.25301 10.6868 11.8554 11.9144 14.0241L15.8858 20.8916C17.1134 22.988 17.1134 25.6626 15.8858 27.759L15.6692 28.1205C15.5248 27.3976 15.2359 26.6747 14.8749 26.0241L9.89253 17.4217C9.24265 16.2651 8.95382 14.9639 8.95382 13.6627C3.68262 15.0361 0 18 0 21.3976C0 26.1687 7.07641 30 15.8136 30C24.5508 30 31.6272 26.1687 31.6272 21.3976C31.6994 18.1446 28.089 15.1807 22.7456 13.8072ZM37.6927 28.4819C37.7649 27.253 37.9093 26.4578 38.2704 25.4458C39.9312 26.241 42.0974 26.6024 43.686 26.6024C46.4299 26.6024 48.0185 25.7349 48.0185 23.9277C48.0185 22.1928 46.8631 21.3976 44.1192 20.1687L42.6029 19.5904C39.7867 18.3614 37.9093 16.7711 37.9093 13.6627C37.9093 10.2651 40.2922 8.09639 45.0579 8.09639C47.0076 8.09639 48.8128 8.38554 50.4736 8.96386C50.4013 10.1205 50.1847 11.0602 49.8959 11.9277C48.3073 11.3494 46.3577 11.0602 44.9857 11.0602C42.3862 11.0602 41.2309 12.0723 41.2309 13.6627C41.2309 15.1807 42.3862 16.1205 44.4803 16.988L46.0689 17.6386C49.8237 19.2289 51.4123 20.9639 51.4123 23.8554C51.4123 27.253 48.8128 29.6386 43.7582 29.6386C41.3753 29.6386 39.3535 29.2771 37.6927 28.4819ZM67.3703 14.241V29.1325H64.3375L64.1931 27.3253C63.3266 28.6265 62.0991 29.494 60.005 29.494C56.1058 29.494 53.4341 26.6024 53.4341 21.6145C53.4341 16.4096 56.2502 13.3735 61.738 13.3735C63.9043 13.4458 65.7095 13.6627 67.3703 14.241ZM64.1209 25.7349V16.4096C63.471 16.2651 62.6767 16.2651 61.738 16.2651C58.3442 16.2651 56.7557 18.3614 56.7557 21.6867C56.7557 24.7229 57.9832 26.8916 60.8715 26.8916C62.2435 26.8193 63.2544 26.3855 64.1209 25.7349ZM84.1226 19.1566V29.1325H80.8732V19.7349C80.8732 17.3494 80.0789 16.2651 76.8296 16.2651C76.0353 16.2651 75.1688 16.3374 74.2301 16.4819V29.1325H70.9807V14.241C73.0747 13.7349 75.3854 13.3735 76.9018 13.3735C82.3896 13.4458 84.1226 15.5422 84.1226 19.1566ZM93.2208 26.747C94.1595 26.747 95.0982 26.6024 95.7481 26.3133C95.6759 27.1807 95.5315 28.1928 95.3871 29.0602C94.5206 29.4217 93.5097 29.5663 92.6432 29.5663C89.466 29.5663 87.4442 28.1205 87.4442 24.506V8.81928C88.4551 8.45783 89.6826 8.31325 90.6935 8.31325V13.9518H95.8925C95.8203 14.9639 95.7481 15.9036 95.6037 16.7711H90.6935V24.0723C90.6935 25.9518 91.6322 26.747 93.2208 26.747ZM110.767 14.241V29.1325H107.735L107.59 27.3253C106.724 28.6265 105.496 29.494 103.402 29.494C99.5029 29.494 96.8312 26.6024 96.8312 21.6145C96.8312 16.4096 99.6474 13.3735 105.135 13.3735C107.301 13.4458 109.034 13.6627 110.767 14.241ZM107.446 25.7349V16.4096C106.796 16.2651 106.002 16.2651 105.063 16.2651C101.669 16.2651 100.081 18.3614 100.081 21.6867C100.081 24.7229 101.308 26.8916 104.196 26.8916C105.568 26.8193 106.652 26.3855 107.446 25.7349ZM127.52 19.1566V29.1325H124.198V19.7349C124.198 17.3494 123.404 16.2651 120.154 16.2651C119.36 16.2651 118.494 16.3374 117.555 16.4819V29.1325H114.306V14.241C116.4 13.7349 118.71 13.3735 120.227 13.3735C125.715 13.4458 127.52 15.5422 127.52 19.1566ZM144.055 8.31325V29.1325H141.023L140.878 27.253C140.012 28.6265 138.784 29.494 136.618 29.494C132.719 29.494 130.047 26.6024 130.047 21.6145C130.047 16.4096 132.863 13.3735 138.351 13.3735C139.217 13.3735 140.012 13.4458 140.806 13.5904V8.6747C141.817 8.38554 142.972 8.31325 144.055 8.31325ZM140.806 25.7349V16.5542C139.94 16.4096 139.073 16.2651 138.207 16.2651C134.957 16.2651 133.441 18.2892 133.441 21.6867C133.441 24.7229 134.668 26.8916 137.557 26.8916C138.856 26.8193 139.94 26.3855 140.806 25.7349ZM160.519 22.7711H150.049C150.482 25.4458 151.998 26.6747 154.959 26.6747C156.764 26.6747 158.569 26.3133 160.158 25.5181C160.013 26.3855 159.869 27.5422 159.652 28.4819C158.136 29.1325 156.62 29.4217 154.814 29.4217C149.327 29.4217 146.727 26.3855 146.727 21.3253C146.727 16.9157 148.749 13.3735 153.948 13.3735C158.641 13.3735 160.663 16.4096 160.663 20.1687C160.663 21.1807 160.663 21.9036 160.519 22.7711ZM150.049 20.0241H157.414C157.414 17.5663 156.114 16.1205 153.876 16.1205C151.493 16.1928 150.265 17.494 150.049 20.0241ZM172 13.5904C172 14.6024 171.856 15.759 171.711 16.4096C170.917 16.3374 170.195 16.2651 169.256 16.2651C168.462 16.2651 167.668 16.3374 166.873 16.4096V29.1325H163.624V14.241C164.996 13.7349 167.379 13.3735 169.184 13.3735C170.123 13.4458 171.278 13.4458 172 13.5904Z" fill="white"/>
</svg>
